<?xml version="1.0" encoding="UTF-8"?>
<svg width="219px" height="84px" viewBox="0 0 219 84" version="1.1" xmlns="http://www.w3.org/2000/svg" xmlns:xlink="http://www.w3.org/1999/xlink">
    <!-- Generator: Sketch 53.1 (72631) - https://sketchapp.com -->
    <title>GDG - Monterrey</title>
    <desc>Created with Sketch.</desc>
    <g id="Page-2" stroke="none" stroke-width="1" fill="none" fill-rule="evenodd">
        <g id="GDG---Monterrey" transform="translate(0.000000, -3.000000)">
            <g id="Group-17-Copy-7">
                <g id="Group-18" transform="translate(0.000000, 56.000000)" fill="#5F6368" fill-rule="nonzero">
                    <path d="M12.312,24.512 C10.1573226,24.512 8.1733424,23.9893386 6.36,22.944 C4.5466576,21.8986614 3.106672,20.4586758 2.04,18.624 C0.973328,16.7893242 0.44,14.7626778 0.44,12.544 C0.44,10.3253222 0.973328,8.29867584 2.04,6.464 C3.106672,4.62932416 4.5466576,3.18933856 6.36,2.144 C8.1733424,1.09866144 10.1573226,0.576 12.312,0.576 C13.9973418,0.576 15.5813259,0.87466368 17.064,1.472 C18.5466741,2.06933632 19.7679952,2.91199456 20.728,4 L18.808,5.952 C18.0613296,5.05599552 17.1226723,4.3680024 15.992,3.888 C14.8613277,3.4079976 13.6453398,3.168 12.344,3.168 C10.743992,3.168 9.24000704,3.55732944 7.832,4.336 C6.42399296,5.11467056 5.29867088,6.21332624 4.456,7.632 C3.61332912,9.05067376 3.192,10.6879907 3.192,12.544 C3.192,14.4000093 3.61332912,16.0373262 4.456,17.456 C5.29867088,18.8746738 6.42399296,19.9733294 7.832,20.752 C9.24000704,21.5306706 10.743992,21.92 12.344,21.92 C13.8800077,21.92 15.1653282,21.6800024 16.2,21.2 C17.2346718,20.7199976 18.1253296,20.0853373 18.872,19.296 C19.4266694,18.6986637 19.874665,17.9786709 20.216,17.136 C20.557335,16.2933291 20.7706662,15.3600051 20.856,14.336 L12.376,14.336 L12.376,11.808 L23.384,11.808 C23.4906672,12.4053363 23.544,12.9599974 23.544,13.472 C23.544,14.880007 23.3200022,16.25066 22.872,17.584 C22.4239978,18.91734 21.7093382,20.0853283 20.728,21.088 C18.6159894,23.3706781 15.8106842,24.512 12.312,24.512 Z M26.7167994,1.088 L33.6287994,1.088 C35.9754778,1.088 38.0234573,1.57332848 39.7727994,2.544 C41.5221415,3.51467152 42.866128,4.86399136 43.8047994,6.592 C44.7434708,8.32000864 45.2127994,10.3039888 45.2127994,12.544 C45.2127994,14.7840112 44.7434708,16.7679914 43.8047994,18.496 C42.866128,20.2240086 41.5221415,21.5733285 39.7727994,22.544 C38.0234573,23.5146715 35.9754778,24 33.6287994,24 L26.7167994,24 L26.7167994,1.088 Z M33.6287994,21.408 C36.3381463,21.408 38.4874581,20.6293411 40.0767994,19.072 C41.6661407,17.5146589 42.4607994,15.3386806 42.4607994,12.544 C42.4607994,9.74931936 41.6661407,7.57334112 40.0767994,6.016 C38.4874581,4.45865888 36.3381463,3.68 33.6287994,3.68 L29.4367994,3.68 L29.4367994,21.408 L33.6287994,21.408 Z M59.1055988,24.512 C56.9509214,24.512 54.9669412,23.9893386 53.1535988,22.944 C51.3402564,21.8986614 49.9002708,20.4586758 48.8335988,18.624 C47.7669268,16.7893242 47.2335988,14.7626778 47.2335988,12.544 C47.2335988,10.3253222 47.7669268,8.29867584 48.8335988,6.464 C49.9002708,4.62932416 51.3402564,3.18933856 53.1535988,2.144 C54.9669412,1.09866144 56.9509214,0.576 59.1055988,0.576 C60.7909406,0.576 62.3749247,0.87466368 63.8575988,1.472 C65.3402729,2.06933632 66.561594,2.91199456 67.5215988,4 L65.6015988,5.952 C64.8549284,5.05599552 63.9162711,4.3680024 62.7855988,3.888 C61.6549265,3.4079976 60.4389386,3.168 59.1375988,3.168 C57.5375908,3.168 56.0336058,3.55732944 54.6255988,4.336 C53.2175918,5.11467056 52.0922697,6.21332624 51.2495988,7.632 C50.4069279,9.05067376 49.9855988,10.6879907 49.9855988,12.544 C49.9855988,14.4000093 50.4069279,16.0373262 51.2495988,17.456 C52.0922697,18.8746738 53.2175918,19.9733294 54.6255988,20.752 C56.0336058,21.5306706 57.5375908,21.92 59.1375988,21.92 C60.6736065,21.92 61.958927,21.6800024 62.9935988,21.2 C64.0282706,20.7199976 64.9189284,20.0853373 65.6655988,19.296 C66.2202682,18.6986637 66.6682638,17.9786709 67.0095988,17.136 C67.3509338,16.2933291 67.564265,15.3600051 67.6495988,14.336 L59.1695988,14.336 L59.1695988,11.808 L70.1775988,11.808 C70.284266,12.4053363 70.3375988,12.9599974 70.3375988,13.472 C70.3375988,14.880007 70.113601,16.25066 69.6655988,17.584 C69.2175966,18.91734 68.502937,20.0853283 67.5215988,21.088 C65.4095882,23.3706781 62.604283,24.512 59.1055988,24.512 Z" id="GDG"></path>
                    <path d="M78.56,1.088 L82.496,1.088 L89.792,19.872 L89.92,19.872 L97.216,1.088 L101.152,1.088 L101.152,24 L98.464,24 L98.464,9.44 L98.592,5.088 L98.464,5.088 L90.976,24 L88.736,24 L81.248,5.088 L81.12,5.088 L81.248,9.44 L81.248,24 L78.56,24 L78.56,1.088 Z M112.068799,24.512 C110.468791,24.512 109.028806,24.1280038 107.748799,23.36 C106.468793,22.5919962 105.47147,21.5466733 104.756799,20.224 C104.042129,18.9013267 103.684799,17.440008 103.684799,15.84 C103.684799,14.239992 104.042129,12.7786733 104.756799,11.456 C105.47147,10.1333267 106.468793,9.08800384 107.748799,8.32 C109.028806,7.55199616 110.468791,7.168 112.068799,7.168 C113.668807,7.168 115.108793,7.55199616 116.388799,8.32 C117.668806,9.08800384 118.666129,10.1333267 119.380799,11.456 C120.09547,12.7786733 120.452799,14.239992 120.452799,15.84 C120.452799,17.440008 120.09547,18.9013267 119.380799,20.224 C118.666129,21.5466733 117.668806,22.5919962 116.388799,23.36 C115.108793,24.1280038 113.668807,24.512 112.068799,24.512 Z M112.068799,22.048 C113.071471,22.048 114.004795,21.7973358 114.868799,21.296 C115.732804,20.7946642 116.42613,20.0746714 116.948799,19.136 C117.471469,18.1973286 117.732799,17.098673 117.732799,15.84 C117.732799,14.581327 117.471469,13.4826714 116.948799,12.544 C116.42613,11.6053286 115.732804,10.8853358 114.868799,10.384 C114.004795,9.88266416 113.071471,9.632 112.068799,9.632 C111.066128,9.632 110.12747,9.88266416 109.252799,10.384 C108.378128,10.8853358 107.679469,11.6053286 107.156799,12.544 C106.63413,13.4826714 106.372799,14.581327 106.372799,15.84 C106.372799,17.098673 106.63413,18.1973286 107.156799,19.136 C107.679469,20.0746714 108.378128,20.7946642 109.252799,21.296 C110.12747,21.7973358 111.066128,22.048 112.068799,22.048 Z M122.441599,7.68 L125.033599,7.68 L125.033599,10.08 L125.161599,10.08 C125.609601,9.26932928 126.324261,8.58133616 127.305599,8.016 C128.286937,7.45066384 129.33226,7.168 130.441599,7.168 C132.404275,7.168 133.902927,7.73866096 134.937599,8.88 C135.972271,10.021339 136.489599,11.5733235 136.489599,13.536 L136.489599,24 L133.769599,24 L133.769599,13.952 C133.769599,12.4373258 133.406936,11.3386701 132.681599,10.656 C131.956262,9.97332992 130.964272,9.632 129.705599,9.632 C128.830928,9.632 128.046936,9.87733088 127.353599,10.368 C126.660262,10.8586691 126.121601,11.503996 125.737599,12.304 C125.353597,13.104004 125.161599,13.941329 125.161599,14.816 L125.161599,24 L122.441599,24 L122.441599,7.68 Z M145.006398,24.256 C144.345062,24.256 143.731734,24.1493344 143.166398,23.936 C142.601062,23.7226656 142.1264,23.4346685 141.742398,23.072 C140.889061,22.2613293 140.462398,21.1413405 140.462398,19.712 L140.462398,10.144 L137.614398,10.144 L137.614398,7.68 L140.462398,7.68 L140.462398,3.072 L143.182398,3.072 L143.182398,7.68 L147.182398,7.68 L147.182398,10.144 L143.182398,10.144 L143.182398,19.04 C143.182398,19.9360045 143.353063,20.5973312 143.694398,21.024 C144.099734,21.4933357 144.686394,21.728 145.454398,21.728 C146.115735,21.728 146.713062,21.5466685 147.246398,21.184 L147.246398,23.84 C146.926397,23.9893341 146.601067,24.0959997 146.270398,24.16 C145.93973,24.2240003 145.518401,24.256 145.006398,24.256 Z M156.147198,24.512 C154.589856,24.512 153.192537,24.1386704 151.955198,23.392 C150.717858,22.6453296 149.752534,21.6160066 149.059198,20.304 C148.365861,18.9919934 148.019198,17.5146749 148.019198,15.872 C148.019198,14.3146589 148.344528,12.86934 148.995198,11.536 C149.645868,10.20266 150.573858,9.14133728 151.779198,8.352 C152.984537,7.56266272 154.365856,7.168 155.923198,7.168 C157.523206,7.168 158.909858,7.52532976 160.083198,8.24 C161.256537,8.95467024 162.157861,9.94132704 162.787198,11.2 C163.416534,12.458673 163.731198,13.8986586 163.731198,15.52 C163.731198,15.7760013 163.709864,16.0533318 163.667198,16.352 L150.739198,16.352 C150.803198,17.5893395 151.101862,18.6346624 151.635198,19.488 C152.168534,20.3413376 152.84586,20.9813312 153.667198,21.408 C154.488535,21.8346688 155.347193,22.048 156.243198,22.048 C158.376542,22.048 159.987192,21.0666765 161.075198,19.104 L163.379198,20.224 C162.696528,21.5253398 161.747204,22.5653294 160.531198,23.344 C159.315192,24.1226706 157.853873,24.512 156.147198,24.512 Z M160.851198,14.112 C160.808531,13.4293299 160.616533,12.7466701 160.275198,12.064 C159.933863,11.3813299 159.400535,10.8053357 158.675198,10.336 C157.949861,9.86666432 157.032536,9.632 155.923198,9.632 C154.643191,9.632 153.555202,10.0426626 152.659198,10.864 C151.763193,11.6853374 151.176532,12.7679933 150.899198,14.112 L160.851198,14.112 Z M166.039997,7.68 L168.631997,7.68 L168.631997,10.304 L168.759997,10.304 C169.079999,9.40799552 169.698659,8.6666696 170.615997,8.08 C171.533335,7.4933304 172.493325,7.2 173.495997,7.2 C174.242667,7.2 174.882661,7.3066656 175.415997,7.52 L175.415997,10.464 C174.733327,10.122665 173.965335,9.952 173.111997,9.952 C172.32266,9.952 171.597334,10.1759978 170.935997,10.624 C170.27466,11.0720022 169.746666,11.6746629 169.351997,12.432 C168.957328,13.1893371 168.759997,14.005329 168.759997,14.88 L168.759997,24 L166.039997,24 L166.039997,7.68 Z M177.180796,7.68 L179.772796,7.68 L179.772796,10.304 L179.900796,10.304 C180.220798,9.40799552 180.839458,8.6666696 181.756796,8.08 C182.674134,7.4933304 183.634125,7.2 184.636796,7.2 C185.383467,7.2 186.02346,7.3066656 186.556796,7.52 L186.556796,10.464 C185.874126,10.122665 185.106134,9.952 184.252796,9.952 C183.463459,9.952 182.738133,10.1759978 182.076796,10.624 C181.41546,11.0720022 180.887465,11.6746629 180.492796,12.432 C180.098128,13.1893371 179.900796,14.005329 179.900796,14.88 L179.900796,24 L177.180796,24 L177.180796,7.68 Z M194.625596,24.512 C193.068255,24.512 191.670935,24.1386704 190.433596,23.392 C189.196256,22.6453296 188.230933,21.6160066 187.537596,20.304 C186.844259,18.9919934 186.497596,17.5146749 186.497596,15.872 C186.497596,14.3146589 186.822926,12.86934 187.473596,11.536 C188.124266,10.20266 189.052256,9.14133728 190.257596,8.352 C191.462935,7.56266272 192.844255,7.168 194.401596,7.168 C196.001604,7.168 197.388257,7.52532976 198.561596,8.24 C199.734935,8.95467024 200.636259,9.94132704 201.265596,11.2 C201.894932,12.458673 202.209596,13.8986586 202.209596,15.52 C202.209596,15.7760013 202.188263,16.0533318 202.145596,16.352 L189.217596,16.352 C189.281596,17.5893395 189.58026,18.6346624 190.113596,19.488 C190.646932,20.3413376 191.324258,20.9813312 192.145596,21.408 C192.966933,21.8346688 193.825591,22.048 194.721596,22.048 C196.85494,22.048 198.46559,21.0666765 199.553596,19.104 L201.857596,20.224 C201.174926,21.5253398 200.225602,22.5653294 199.009596,23.344 C197.79359,24.1226706 196.332271,24.512 194.625596,24.512 Z M199.329596,14.112 C199.286929,13.4293299 199.094931,12.7466701 198.753596,12.064 C198.412261,11.3813299 197.878933,10.8053357 197.153596,10.336 C196.428259,9.86666432 195.510935,9.632 194.401596,9.632 C193.121589,9.632 192.0336,10.0426626 191.137596,10.864 C190.241591,11.6853374 189.654931,12.7679933 189.377596,14.112 L199.329596,14.112 Z M209.190395,22.976 L202.438395,7.68 L205.382395,7.68 L210.502395,19.808 L210.566395,19.808 L215.494395,7.68 L218.438395,7.68 L208.358395,30.912 L205.542395,30.912 L209.190395,22.976 Z" id="Monterrey"></path>
                </g>
                <g id="Group-16" transform="translate(67.000000, 0.000000)">
                    <rect id="Rectangle" fill="#FABB04" transform="translate(64.000000, 28.500000) rotate(60.000000) translate(-64.000000, -28.500000) " x="58" y="9.5" width="12" height="38" rx="6"></rect>
                    <path d="M20.7290194,-3.48825882 L20.7290194,-3.48825882 C24.0427279,-3.48825882 26.7290194,-0.801967317 26.7290194,2.51174118 L26.7290194,28.5117412 C26.7290194,31.8254497 24.0427279,34.5117412 20.7290194,34.5117412 L20.7290194,34.5117412 C17.4153109,34.5117412 14.7290194,31.8254497 14.7290194,28.5117412 L14.7290194,2.51174118 C14.7290194,-0.801967317 17.4153109,-3.48825882 20.7290194,-3.48825882 Z" id="Rectangle-Copy-2" fill="#E94335" transform="translate(20.729019, 15.511741) rotate(60.000000) translate(-20.729019, -15.511741) "></path>
                    <rect id="Rectangle-Copy-3" fill="#4284F3" transform="translate(20.000000, 29.000000) scale(1, -1) rotate(60.000000) translate(-20.000000, -29.000000) " x="14" y="10" width="12" height="38" rx="6"></rect>
                    <path d="M64.0416331,-3.48825882 L64.0416331,-3.48825882 C67.3553416,-3.48825882 70.0416331,-0.801967317 70.0416331,2.51174118 L70.0416331,28.5117412 C70.0416331,31.8254497 67.3553416,34.5117412 64.0416331,34.5117412 L64.0416331,34.5117412 C60.7279246,34.5117412 58.0416331,31.8254497 58.0416331,28.5117412 L58.0416331,2.51174118 C58.0416331,-0.801967317 60.7279246,-3.48825882 64.0416331,-3.48825882 Z" id="Rectangle-Copy-5" fill="#0F9D58" transform="translate(64.041633, 15.511741) scale(1, -1) rotate(60.000000) translate(-64.041633, -15.511741) "></path>
                </g>
            </g>
        </g>
    </g>
</svg>