<?xml version="1.0" encoding="UTF-8"?>
<svg width="182px" height="78px" viewBox="0 0 182 78" version="1.1" xmlns="http://www.w3.org/2000/svg" xmlns:xlink="http://www.w3.org/1999/xlink">
    <!-- Generator: Sketch 53.1 (72631) - https://sketchapp.com -->
    <title>GDG - Cancun</title>
    <desc>Created with Sketch.</desc>
    <g id="Page-2" stroke="none" stroke-width="1" fill="none" fill-rule="evenodd">
        <g id="GDG---Cancun" transform="translate(-1.000000, -3.000000)">
            <g id="Group-18" transform="translate(0.000000, 49.000000)" fill="#5F6368" fill-rule="nonzero">
                <path d="M13.312,31.512 C11.1573226,31.512 9.1733424,30.9893386 7.36,29.944 C5.5466576,28.8986614 4.106672,27.4586758 3.04,25.624 C1.973328,23.7893242 1.44,21.7626778 1.44,19.544 C1.44,17.3253222 1.973328,15.2986758 3.04,13.464 C4.106672,11.6293242 5.5466576,10.1893386 7.36,9.144 C9.1733424,8.09866144 11.1573226,7.576 13.312,7.576 C14.9973418,7.576 16.5813259,7.87466368 18.064,8.472 C19.5466741,9.06933632 20.7679952,9.91199456 21.728,11 L19.808,12.952 C19.0613296,12.0559955 18.1226723,11.3680024 16.992,10.888 C15.8613277,10.4079976 14.6453398,10.168 13.344,10.168 C11.743992,10.168 10.240007,10.5573294 8.832,11.336 C7.42399296,12.1146706 6.29867088,13.2133262 5.456,14.632 C4.61332912,16.0506738 4.192,17.6879907 4.192,19.544 C4.192,21.4000093 4.61332912,23.0373262 5.456,24.456 C6.29867088,25.8746738 7.42399296,26.9733294 8.832,27.752 C10.240007,28.5306706 11.743992,28.92 13.344,28.92 C14.8800077,28.92 16.1653282,28.6800024 17.2,28.2 C18.2346718,27.7199976 19.1253296,27.0853373 19.872,26.296 C20.4266694,25.6986637 20.874665,24.9786709 21.216,24.136 C21.557335,23.2933291 21.7706662,22.3600051 21.856,21.336 L13.376,21.336 L13.376,18.808 L24.384,18.808 C24.4906672,19.4053363 24.544,19.9599974 24.544,20.472 C24.544,21.880007 24.3200022,23.25066 23.872,24.584 C23.4239978,25.91734 22.7093382,27.0853283 21.728,28.088 C19.6159894,30.3706781 16.8106842,31.512 13.312,31.512 Z M27.7167994,8.088 L34.6287994,8.088 C36.9754778,8.088 39.0234573,8.57332848 40.7727994,9.544 C42.5221415,10.5146715 43.866128,11.8639914 44.8047994,13.592 C45.7434708,15.3200086 46.2127994,17.3039888 46.2127994,19.544 C46.2127994,21.7840112 45.7434708,23.7679914 44.8047994,25.496 C43.866128,27.2240086 42.5221415,28.5733285 40.7727994,29.544 C39.0234573,30.5146715 36.9754778,31 34.6287994,31 L27.7167994,31 L27.7167994,8.088 Z M34.6287994,28.408 C37.3381463,28.408 39.4874581,27.6293411 41.0767994,26.072 C42.6661407,24.5146589 43.4607994,22.3386806 43.4607994,19.544 C43.4607994,16.7493194 42.6661407,14.5733411 41.0767994,13.016 C39.4874581,11.4586589 37.3381463,10.68 34.6287994,10.68 L30.4367994,10.68 L30.4367994,28.408 L34.6287994,28.408 Z M60.1055988,31.512 C57.9509214,31.512 55.9669412,30.9893386 54.1535988,29.944 C52.3402564,28.8986614 50.9002708,27.4586758 49.8335988,25.624 C48.7669268,23.7893242 48.2335988,21.7626778 48.2335988,19.544 C48.2335988,17.3253222 48.7669268,15.2986758 49.8335988,13.464 C50.9002708,11.6293242 52.3402564,10.1893386 54.1535988,9.144 C55.9669412,8.09866144 57.9509214,7.576 60.1055988,7.576 C61.7909406,7.576 63.3749247,7.87466368 64.8575988,8.472 C66.3402729,9.06933632 67.561594,9.91199456 68.5215988,11 L66.6015988,12.952 C65.8549284,12.0559955 64.9162711,11.3680024 63.7855988,10.888 C62.6549265,10.4079976 61.4389386,10.168 60.1375988,10.168 C58.5375908,10.168 57.0336058,10.5573294 55.6255988,11.336 C54.2175918,12.1146706 53.0922697,13.2133262 52.2495988,14.632 C51.4069279,16.0506738 50.9855988,17.6879907 50.9855988,19.544 C50.9855988,21.4000093 51.4069279,23.0373262 52.2495988,24.456 C53.0922697,25.8746738 54.2175918,26.9733294 55.6255988,27.752 C57.0336058,28.5306706 58.5375908,28.92 60.1375988,28.92 C61.6736065,28.92 62.958927,28.6800024 63.9935988,28.2 C65.0282706,27.7199976 65.9189284,27.0853373 66.6655988,26.296 C67.2202682,25.6986637 67.6682638,24.9786709 68.0095988,24.136 C68.3509338,23.2933291 68.564265,22.3600051 68.6495988,21.336 L60.1695988,21.336 L60.1695988,18.808 L71.1775988,18.808 C71.284266,19.4053363 71.3375988,19.9599974 71.3375988,20.472 C71.3375988,21.880007 71.113601,23.25066 70.6655988,24.584 C70.2175966,25.91734 69.502937,27.0853283 68.5215988,28.088 C66.4095882,30.3706781 63.604283,31.512 60.1055988,31.512 Z" id="GDG"></path>
                <path d="M90.312,31.512 C88.0933222,31.512 86.0773424,30.9893386 84.264,29.944 C82.4506576,28.8986614 81.0266718,27.4640091 79.992,25.64 C78.9573282,23.8159909 78.44,21.7840112 78.44,19.544 C78.44,17.3039888 78.9573282,15.2720091 79.992,13.448 C81.0266718,11.6239909 82.4506576,10.1893386 84.264,9.144 C86.0773424,8.09866144 88.0933222,7.576 90.312,7.576 C92.0186752,7.576 93.5813262,7.8959968 95,8.536 C96.4186738,9.1760032 97.6506614,10.1039939 98.696,11.32 L96.744,13.208 C95.869329,12.1626614 94.9146718,11.3946691 93.88,10.904 C92.8453282,10.4133309 91.6560067,10.168 90.312,10.168 C88.6479917,10.168 87.1226736,10.5573294 85.736,11.336 C84.3493264,12.1146706 83.2453374,13.2133262 82.424,14.632 C81.6026626,16.0506738 81.192,17.6879907 81.192,19.544 C81.192,21.4000093 81.6026626,23.0373262 82.424,24.456 C83.2453374,25.8746738 84.3493264,26.9733294 85.736,27.752 C87.1226736,28.5306706 88.6479917,28.92 90.312,28.92 C93.0853472,28.92 95.442657,27.7786781 97.384,25.496 L99.368,27.416 C98.3226614,28.674673 97.0160078,29.6719963 95.448,30.408 C93.8799922,31.1440037 92.1680093,31.512 90.312,31.512 Z M106.444799,31.512 C105.250127,31.512 104.183471,31.2773357 103.244799,30.808 C102.306128,30.3386643 101.580802,29.6933374 101.068799,28.872 C100.556797,28.0506626 100.300799,27.1173386 100.300799,26.072 C100.300799,24.3439914 100.95146,22.9946715 102.252799,22.024 C103.554139,21.0533285 105.196789,20.568 107.180799,20.568 C108.162138,20.568 109.074129,20.6746656 109.916799,20.888 C110.75947,21.1013344 111.404797,21.3466653 111.852799,21.624 L111.852799,20.632 C111.852799,19.4159939 111.426137,18.4400037 110.572799,17.704 C109.719462,16.9679963 108.642139,16.6 107.340799,16.6 C106.444795,16.6 105.60747,16.7973314 104.828799,17.192 C104.050129,17.5866686 103.436802,18.1359965 102.988799,18.84 L100.940799,17.304 C101.580803,16.3226618 102.466127,15.5546694 103.596799,15 C104.727472,14.4453306 105.975459,14.168 107.340799,14.168 C109.559477,14.168 111.298126,14.7493275 112.556799,15.912 C113.815472,17.0746725 114.444799,18.6586566 114.444799,20.664 L114.444799,31 L111.852799,31 L111.852799,28.664 L111.724799,28.664 C111.255464,29.4533373 110.551471,30.1253306 109.612799,30.68 C108.674128,31.2346694 107.618139,31.512 106.444799,31.512 Z M106.700799,29.112 C107.618137,29.112 108.471462,28.8773357 109.260799,28.408 C110.050137,27.9386643 110.679464,27.3093373 111.148799,26.52 C111.618135,25.7306627 111.852799,24.8666714 111.852799,23.928 C111.340797,23.586665 110.71147,23.3093344 109.964799,23.096 C109.218129,22.8826656 108.428804,22.776 107.596799,22.776 C106.103459,22.776 104.978137,23.0853302 104.220799,23.704 C103.463462,24.3226698 103.084799,25.1226618 103.084799,26.104 C103.084799,27.0000045 103.426129,27.7253306 104.108799,28.28 C104.791469,28.8346694 105.655461,29.112 106.700799,29.112 Z M117.361599,14.68 L119.953599,14.68 L119.953599,17.08 L120.081599,17.08 C120.529601,16.2693293 121.244261,15.5813362 122.225599,15.016 C123.206937,14.4506638 124.25226,14.168 125.361599,14.168 C127.324275,14.168 128.822927,14.738661 129.857599,15.88 C130.892271,17.021339 131.409599,18.5733235 131.409599,20.536 L131.409599,31 L128.689599,31 L128.689599,20.952 C128.689599,19.4373258 128.326936,18.3386701 127.601599,17.656 C126.876262,16.9733299 125.884272,16.632 124.625599,16.632 C123.750928,16.632 122.966936,16.8773309 122.273599,17.368 C121.580262,17.8586691 121.041601,18.503996 120.657599,19.304 C120.273597,20.104004 120.081599,20.941329 120.081599,21.816 L120.081599,31 L117.361599,31 L117.361599,14.68 Z M141.846398,31.512 C140.267724,31.512 138.849071,31.1333371 137.590398,30.376 C136.331725,29.6186629 135.350402,28.5840066 134.646398,27.272 C133.942395,25.9599934 133.590398,24.4826749 133.590398,22.84 C133.590398,21.1973251 133.942395,19.7146733 134.646398,18.392 C135.350402,17.0693267 136.331725,16.0346704 137.590398,15.288 C138.849071,14.5413296 140.267724,14.168 141.846398,14.168 C143.617074,14.168 145.105059,14.5786626 146.310398,15.4 C147.515738,16.2213374 148.374396,17.3146598 148.886398,18.68 L146.422398,19.704 C146.017063,18.7013283 145.414402,17.9386693 144.614398,17.416 C143.814394,16.8933307 142.849071,16.632 141.718398,16.632 C140.758393,16.632 139.862402,16.8933307 139.030398,17.416 C138.198394,17.9386693 137.531734,18.6693286 137.030398,19.608 C136.529062,20.5466714 136.278398,21.6239939 136.278398,22.84 C136.278398,24.0560061 136.529062,25.1333286 137.030398,26.072 C137.531734,27.0106714 138.198394,27.7413307 139.030398,28.264 C139.862402,28.7866693 140.758393,29.048 141.718398,29.048 C142.870404,29.048 143.862394,28.781336 144.694398,28.248 C145.526402,27.714664 146.145063,26.9573382 146.550398,25.976 L148.982398,27 C148.427729,28.3440067 147.537071,29.4319958 146.310398,30.264 C145.083725,31.0960042 143.59574,31.512 141.846398,31.512 Z M156.987198,31.512 C155.024521,31.512 153.525869,30.9360058 152.491198,29.784 C151.456526,28.6319942 150.939198,27.0213437 150.939198,24.952 L150.939198,14.68 L153.659198,14.68 L153.659198,24.536 C153.659198,26.0933411 154.011194,27.234663 154.715198,27.96 C155.419201,28.685337 156.368525,29.048 157.563198,29.048 C158.480536,29.048 159.296527,28.8026691 160.011198,28.312 C160.725868,27.8213309 161.280529,27.1813373 161.675198,26.392 C162.069866,25.6026627 162.267198,24.770671 162.267198,23.896 L162.267198,14.68 L164.987198,14.68 L164.987198,31 L162.395198,31 L162.395198,28.632 L162.267198,28.632 C161.819195,29.4426707 161.104536,30.1253306 160.123198,30.68 C159.141859,31.2346694 158.096536,31.512 156.987198,31.512 Z M158.427198,7.448 L161.403198,7.448 L159.131198,11.512 L156.763198,11.512 L158.427198,7.448 Z M168.159997,14.68 L170.751997,14.68 L170.751997,17.08 L170.879997,17.08 C171.327999,16.2693293 172.042659,15.5813362 173.023997,15.016 C174.005335,14.4506638 175.050658,14.168 176.159997,14.168 C178.122673,14.168 179.621325,14.738661 180.655997,15.88 C181.690669,17.021339 182.207997,18.5733235 182.207997,20.536 L182.207997,31 L179.487997,31 L179.487997,20.952 C179.487997,19.4373258 179.125334,18.3386701 178.399997,17.656 C177.67466,16.9733299 176.68267,16.632 175.423997,16.632 C174.549326,16.632 173.765334,16.8773309 173.071997,17.368 C172.37866,17.8586691 171.839999,18.503996 171.455997,19.304 C171.071995,20.104004 170.879997,20.941329 170.879997,21.816 L170.879997,31 L168.159997,31 L168.159997,14.68 Z" id="Cancún"></path>
            </g>
            <g id="Group-16" transform="translate(50.000000, 0.000000)">
                <rect id="Rectangle" fill="#FABB04" transform="translate(64.000000, 28.500000) rotate(60.000000) translate(-64.000000, -28.500000) " x="58" y="9.5" width="12" height="38" rx="6"></rect>
                <path d="M20.7290194,-3.48825882 L20.7290194,-3.48825882 C24.0427279,-3.48825882 26.7290194,-0.801967317 26.7290194,2.51174118 L26.7290194,28.5117412 C26.7290194,31.8254497 24.0427279,34.5117412 20.7290194,34.5117412 L20.7290194,34.5117412 C17.4153109,34.5117412 14.7290194,31.8254497 14.7290194,28.5117412 L14.7290194,2.51174118 C14.7290194,-0.801967317 17.4153109,-3.48825882 20.7290194,-3.48825882 Z" id="Rectangle-Copy-2" fill="#E94335" transform="translate(20.729019, 15.511741) rotate(60.000000) translate(-20.729019, -15.511741) "></path>
                <rect id="Rectangle-Copy-3" fill="#4284F3" transform="translate(20.000000, 29.000000) scale(1, -1) rotate(60.000000) translate(-20.000000, -29.000000) " x="14" y="10" width="12" height="38" rx="6"></rect>
                <path d="M64.0416331,-3.48825882 L64.0416331,-3.48825882 C67.3553416,-3.48825882 70.0416331,-0.801967317 70.0416331,2.51174118 L70.0416331,28.5117412 C70.0416331,31.8254497 67.3553416,34.5117412 64.0416331,34.5117412 L64.0416331,34.5117412 C60.7279246,34.5117412 58.0416331,31.8254497 58.0416331,28.5117412 L58.0416331,2.51174118 C58.0416331,-0.801967317 60.7279246,-3.48825882 64.0416331,-3.48825882 Z" id="Rectangle-Copy-5" fill="#0F9D58" transform="translate(64.041633, 15.511741) scale(1, -1) rotate(60.000000) translate(-64.041633, -15.511741) "></path>
            </g>
        </g>
    </g>
</svg>