<?xml version="1.0" encoding="UTF-8"?>
<svg width="189px" height="78px" viewBox="0 0 189 78" version="1.1" xmlns="http://www.w3.org/2000/svg" xmlns:xlink="http://www.w3.org/1999/xlink">
    <!-- Generator: Sketch 53.1 (72631) - https://sketchapp.com -->
    <title>GDG - Misantla</title>
    <desc>Created with Sketch.</desc>
    <g id="Page-2" stroke="none" stroke-width="1" fill="none" fill-rule="evenodd">
        <g id="GDG---Misantla" transform="translate(-1.000000, -3.000000)">
            <g id="Group-17-Copy-7">
                <g id="Group-18" transform="translate(0.000000, 49.000000)" fill="#5F6368" fill-rule="nonzero">
                    <path d="M13.312,31.512 C11.1573226,31.512 9.1733424,30.9893386 7.36,29.944 C5.5466576,28.8986614 4.106672,27.4586758 3.04,25.624 C1.973328,23.7893242 1.44,21.7626778 1.44,19.544 C1.44,17.3253222 1.973328,15.2986758 3.04,13.464 C4.106672,11.6293242 5.5466576,10.1893386 7.36,9.144 C9.1733424,8.09866144 11.1573226,7.576 13.312,7.576 C14.9973418,7.576 16.5813259,7.87466368 18.064,8.472 C19.5466741,9.06933632 20.7679952,9.91199456 21.728,11 L19.808,12.952 C19.0613296,12.0559955 18.1226723,11.3680024 16.992,10.888 C15.8613277,10.4079976 14.6453398,10.168 13.344,10.168 C11.743992,10.168 10.240007,10.5573294 8.832,11.336 C7.42399296,12.1146706 6.29867088,13.2133262 5.456,14.632 C4.61332912,16.0506738 4.192,17.6879907 4.192,19.544 C4.192,21.4000093 4.61332912,23.0373262 5.456,24.456 C6.29867088,25.8746738 7.42399296,26.9733294 8.832,27.752 C10.240007,28.5306706 11.743992,28.92 13.344,28.92 C14.8800077,28.92 16.1653282,28.6800024 17.2,28.2 C18.2346718,27.7199976 19.1253296,27.0853373 19.872,26.296 C20.4266694,25.6986637 20.874665,24.9786709 21.216,24.136 C21.557335,23.2933291 21.7706662,22.3600051 21.856,21.336 L13.376,21.336 L13.376,18.808 L24.384,18.808 C24.4906672,19.4053363 24.544,19.9599974 24.544,20.472 C24.544,21.880007 24.3200022,23.25066 23.872,24.584 C23.4239978,25.91734 22.7093382,27.0853283 21.728,28.088 C19.6159894,30.3706781 16.8106842,31.512 13.312,31.512 Z M27.7167994,8.088 L34.6287994,8.088 C36.9754778,8.088 39.0234573,8.57332848 40.7727994,9.544 C42.5221415,10.5146715 43.866128,11.8639914 44.8047994,13.592 C45.7434708,15.3200086 46.2127994,17.3039888 46.2127994,19.544 C46.2127994,21.7840112 45.7434708,23.7679914 44.8047994,25.496 C43.866128,27.2240086 42.5221415,28.5733285 40.7727994,29.544 C39.0234573,30.5146715 36.9754778,31 34.6287994,31 L27.7167994,31 L27.7167994,8.088 Z M34.6287994,28.408 C37.3381463,28.408 39.4874581,27.6293411 41.0767994,26.072 C42.6661407,24.5146589 43.4607994,22.3386806 43.4607994,19.544 C43.4607994,16.7493194 42.6661407,14.5733411 41.0767994,13.016 C39.4874581,11.4586589 37.3381463,10.68 34.6287994,10.68 L30.4367994,10.68 L30.4367994,28.408 L34.6287994,28.408 Z M60.1055988,31.512 C57.9509214,31.512 55.9669412,30.9893386 54.1535988,29.944 C52.3402564,28.8986614 50.9002708,27.4586758 49.8335988,25.624 C48.7669268,23.7893242 48.2335988,21.7626778 48.2335988,19.544 C48.2335988,17.3253222 48.7669268,15.2986758 49.8335988,13.464 C50.9002708,11.6293242 52.3402564,10.1893386 54.1535988,9.144 C55.9669412,8.09866144 57.9509214,7.576 60.1055988,7.576 C61.7909406,7.576 63.3749247,7.87466368 64.8575988,8.472 C66.3402729,9.06933632 67.561594,9.91199456 68.5215988,11 L66.6015988,12.952 C65.8549284,12.0559955 64.9162711,11.3680024 63.7855988,10.888 C62.6549265,10.4079976 61.4389386,10.168 60.1375988,10.168 C58.5375908,10.168 57.0336058,10.5573294 55.6255988,11.336 C54.2175918,12.1146706 53.0922697,13.2133262 52.2495988,14.632 C51.4069279,16.0506738 50.9855988,17.6879907 50.9855988,19.544 C50.9855988,21.4000093 51.4069279,23.0373262 52.2495988,24.456 C53.0922697,25.8746738 54.2175918,26.9733294 55.6255988,27.752 C57.0336058,28.5306706 58.5375908,28.92 60.1375988,28.92 C61.6736065,28.92 62.958927,28.6800024 63.9935988,28.2 C65.0282706,27.7199976 65.9189284,27.0853373 66.6655988,26.296 C67.2202682,25.6986637 67.6682638,24.9786709 68.0095988,24.136 C68.3509338,23.2933291 68.564265,22.3600051 68.6495988,21.336 L60.1695988,21.336 L60.1695988,18.808 L71.1775988,18.808 C71.284266,19.4053363 71.3375988,19.9599974 71.3375988,20.472 C71.3375988,21.880007 71.113601,23.25066 70.6655988,24.584 C70.2175966,25.91734 69.502937,27.0853283 68.5215988,28.088 C66.4095882,30.3706781 63.604283,31.512 60.1055988,31.512 Z" id="GDG"></path>
                    <path d="M79.56,8.088 L83.496,8.088 L90.792,26.872 L90.92,26.872 L98.216,8.088 L102.152,8.088 L102.152,31 L99.464,31 L99.464,16.44 L99.592,12.088 L99.464,12.088 L91.976,31 L89.736,31 L82.248,12.088 L82.12,12.088 L82.248,16.44 L82.248,31 L79.56,31 L79.56,8.088 Z M107.468799,11.672 C106.935463,11.672 106.476801,11.4800019 106.092799,11.096 C105.708797,10.7119981 105.516799,10.253336 105.516799,9.72 C105.516799,9.16533056 105.708797,8.7013352 106.092799,8.328 C106.476801,7.9546648 106.935463,7.768 107.468799,7.768 C108.023469,7.768 108.487464,7.9546648 108.860799,8.328 C109.234135,8.7013352 109.420799,9.16533056 109.420799,9.72 C109.420799,10.253336 109.234135,10.7119981 108.860799,11.096 C108.487464,11.4800019 108.023469,11.672 107.468799,11.672 Z M106.124799,14.68 L108.844799,14.68 L108.844799,31 L106.124799,31 L106.124799,14.68 Z M117.937599,31.512 C116.188257,31.512 114.726938,31.1013374 113.553599,30.28 C112.38026,29.4586626 111.548268,28.4080064 111.057599,27.128 L113.489599,26.04 C113.894934,27.0213382 114.497595,27.778664 115.297599,28.312 C116.097603,28.845336 116.977594,29.112 117.937599,29.112 C118.961604,29.112 119.836262,28.9040021 120.561599,28.488 C121.286936,28.0719979 121.649599,27.4800038 121.649599,26.712 C121.649599,26.0293299 121.361602,25.4800021 120.785599,25.064 C120.209596,24.6479979 119.302938,24.2906682 118.065599,23.992 L116.081599,23.48 C114.780259,23.1599984 113.713603,22.6160038 112.881599,21.848 C112.049595,21.0799962 111.633599,20.0880061 111.633599,18.872 C111.633599,17.9333286 111.916263,17.1066702 112.481599,16.392 C113.046935,15.6773298 113.798927,15.1280019 114.737599,14.744 C115.67627,14.3599981 116.689593,14.168 117.777599,14.168 C119.206939,14.168 120.481593,14.4773302 121.601599,15.096 C122.721604,15.7146698 123.516263,16.5786611 123.985599,17.688 L121.617599,18.776 C120.892262,17.3253261 119.601608,16.6 117.745599,16.6 C116.849594,16.6 116.065602,16.8079979 115.393599,17.224 C114.721595,17.6400021 114.385599,18.1679968 114.385599,18.808 C114.385599,19.4053363 114.620263,19.8906648 115.089599,20.264 C115.558934,20.6373352 116.262927,20.9413322 117.201599,21.176 L119.569599,21.784 C121.169607,22.1893354 122.374928,22.791996 123.185599,23.592 C123.99627,24.392004 124.401599,25.3679942 124.401599,26.52 C124.401599,27.5226717 124.113602,28.4026629 123.537599,29.16 C122.961596,29.9173371 122.182937,30.4986646 121.201599,30.904 C120.220261,31.3093354 119.132271,31.512 117.937599,31.512 Z M131.894398,31.512 C130.699726,31.512 129.63307,31.2773357 128.694398,30.808 C127.755727,30.3386643 127.030401,29.6933374 126.518398,28.872 C126.006396,28.0506626 125.750398,27.1173386 125.750398,26.072 C125.750398,24.3439914 126.401058,22.9946715 127.702398,22.024 C129.003738,21.0533285 130.646388,20.568 132.630398,20.568 C133.611736,20.568 134.523727,20.6746656 135.366398,20.888 C136.209069,21.1013344 136.854396,21.3466653 137.302398,21.624 L137.302398,20.632 C137.302398,19.4159939 136.875736,18.4400037 136.022398,17.704 C135.169061,16.9679963 134.091738,16.6 132.790398,16.6 C131.894394,16.6 131.057069,16.7973314 130.278398,17.192 C129.499728,17.5866686 128.8864,18.1359965 128.438398,18.84 L126.390398,17.304 C127.030401,16.3226618 127.915726,15.5546694 129.046398,15 C130.177071,14.4453306 131.425058,14.168 132.790398,14.168 C135.009076,14.168 136.747725,14.7493275 138.006398,15.912 C139.265071,17.0746725 139.894398,18.6586566 139.894398,20.664 L139.894398,31 L137.302398,31 L137.302398,28.664 L137.174398,28.664 C136.705063,29.4533373 136.00107,30.1253306 135.062398,30.68 C134.123727,31.2346694 133.067737,31.512 131.894398,31.512 Z M132.150398,29.112 C133.067736,29.112 133.921061,28.8773357 134.710398,28.408 C135.499735,27.9386643 136.129063,27.3093373 136.598398,26.52 C137.067734,25.7306627 137.302398,24.8666714 137.302398,23.928 C136.790396,23.586665 136.161069,23.3093344 135.414398,23.096 C134.667728,22.8826656 133.878402,22.776 133.046398,22.776 C131.553057,22.776 130.427735,23.0853302 129.670398,23.704 C128.913061,24.3226698 128.534398,25.1226618 128.534398,26.104 C128.534398,27.0000045 128.875728,27.7253306 129.558398,28.28 C130.241068,28.8346694 131.10506,29.112 132.150398,29.112 Z M142.811198,14.68 L145.403198,14.68 L145.403198,17.08 L145.531198,17.08 C145.9792,16.2693293 146.693859,15.5813362 147.675198,15.016 C148.656536,14.4506638 149.701859,14.168 150.811198,14.168 C152.773874,14.168 154.272526,14.738661 155.307198,15.88 C156.341869,17.021339 156.859198,18.5733235 156.859198,20.536 L156.859198,31 L154.139198,31 L154.139198,20.952 C154.139198,19.4373258 153.776535,18.3386701 153.051198,17.656 C152.325861,16.9733299 151.333871,16.632 150.075198,16.632 C149.200527,16.632 148.416534,16.8773309 147.723198,17.368 C147.029861,17.8586691 146.4912,18.503996 146.107198,19.304 C145.723196,20.104004 145.531198,20.941329 145.531198,21.816 L145.531198,31 L142.811198,31 L142.811198,14.68 Z M165.375997,31.256 C164.71466,31.256 164.101333,31.1493344 163.535997,30.936 C162.970661,30.7226656 162.495999,30.4346685 162.111997,30.072 C161.258659,29.2613293 160.831997,28.1413405 160.831997,26.712 L160.831997,17.144 L157.983997,17.144 L157.983997,14.68 L160.831997,14.68 L160.831997,10.072 L163.551997,10.072 L163.551997,14.68 L167.551997,14.68 L167.551997,17.144 L163.551997,17.144 L163.551997,26.04 C163.551997,26.9360045 163.722662,27.5973312 164.063997,28.024 C164.469332,28.4933357 165.055993,28.728 165.823997,28.728 C166.485334,28.728 167.082661,28.5466685 167.615997,28.184 L167.615997,30.84 C167.295995,30.9893341 166.970665,31.0959997 166.639997,31.16 C166.309329,31.2240003 165.888,31.256 165.375997,31.256 Z M170.116796,8.088 L172.836796,8.088 L172.836796,31 L170.116796,31 L170.116796,8.088 Z M181.065596,31.512 C179.870923,31.512 178.804267,31.2773357 177.865596,30.808 C176.926924,30.3386643 176.201598,29.6933374 175.689596,28.872 C175.177593,28.0506626 174.921596,27.1173386 174.921596,26.072 C174.921596,24.3439914 175.572256,22.9946715 176.873596,22.024 C178.174936,21.0533285 179.817586,20.568 181.801596,20.568 C182.782934,20.568 183.694925,20.6746656 184.537596,20.888 C185.380267,21.1013344 186.025594,21.3466653 186.473596,21.624 L186.473596,20.632 C186.473596,19.4159939 186.046933,18.4400037 185.193596,17.704 C184.340258,16.9679963 183.262936,16.6 181.961596,16.6 C181.065591,16.6 180.228266,16.7973314 179.449596,17.192 C178.670925,17.5866686 178.057598,18.1359965 177.609596,18.84 L175.561596,17.304 C176.201599,16.3226618 177.086923,15.5546694 178.217596,15 C179.348268,14.4453306 180.596256,14.168 181.961596,14.168 C184.180274,14.168 185.918923,14.7493275 187.177596,15.912 C188.436269,17.0746725 189.065596,18.6586566 189.065596,20.664 L189.065596,31 L186.473596,31 L186.473596,28.664 L186.345596,28.664 C185.87626,29.4533373 185.172267,30.1253306 184.233596,30.68 C183.294924,31.2346694 182.238935,31.512 181.065596,31.512 Z M181.321596,29.112 C182.238934,29.112 183.092259,28.8773357 183.881596,28.408 C184.670933,27.9386643 185.30026,27.3093373 185.769596,26.52 C186.238931,25.7306627 186.473596,24.8666714 186.473596,23.928 C185.961593,23.586665 185.332266,23.3093344 184.585596,23.096 C183.838925,22.8826656 183.0496,22.776 182.217596,22.776 C180.724255,22.776 179.598933,23.0853302 178.841596,23.704 C178.084259,24.3226698 177.705596,25.1226618 177.705596,26.104 C177.705596,27.0000045 178.046926,27.7253306 178.729596,28.28 C179.412266,28.8346694 180.276257,29.112 181.321596,29.112 Z" id="Misantla"></path>
                </g>
                <g id="Group-16" transform="translate(53.000000, 0.000000)">
                    <rect id="Rectangle" fill="#FABB04" transform="translate(64.000000, 28.500000) rotate(60.000000) translate(-64.000000, -28.500000) " x="58" y="9.5" width="12" height="38" rx="6"></rect>
                    <path d="M20.7290194,-3.48825882 L20.7290194,-3.48825882 C24.0427279,-3.48825882 26.7290194,-0.801967317 26.7290194,2.51174118 L26.7290194,28.5117412 C26.7290194,31.8254497 24.0427279,34.5117412 20.7290194,34.5117412 L20.7290194,34.5117412 C17.4153109,34.5117412 14.7290194,31.8254497 14.7290194,28.5117412 L14.7290194,2.51174118 C14.7290194,-0.801967317 17.4153109,-3.48825882 20.7290194,-3.48825882 Z" id="Rectangle-Copy-2" fill="#E94335" transform="translate(20.729019, 15.511741) rotate(60.000000) translate(-20.729019, -15.511741) "></path>
                    <rect id="Rectangle-Copy-3" fill="#4284F3" transform="translate(20.000000, 29.000000) scale(1, -1) rotate(60.000000) translate(-20.000000, -29.000000) " x="14" y="10" width="12" height="38" rx="6"></rect>
                    <path d="M64.0416331,-3.48825882 L64.0416331,-3.48825882 C67.3553416,-3.48825882 70.0416331,-0.801967317 70.0416331,2.51174118 L70.0416331,28.5117412 C70.0416331,31.8254497 67.3553416,34.5117412 64.0416331,34.5117412 L64.0416331,34.5117412 C60.7279246,34.5117412 58.0416331,31.8254497 58.0416331,28.5117412 L58.0416331,2.51174118 C58.0416331,-0.801967317 60.7279246,-3.48825882 64.0416331,-3.48825882 Z" id="Rectangle-Copy-5" fill="#0F9D58" transform="translate(64.041633, 15.511741) scale(1, -1) rotate(60.000000) translate(-64.041633, -15.511741) "></path>
                </g>
            </g>
        </g>
    </g>
</svg>