<?xml version="1.0" encoding="UTF-8"?>
<svg width="167px" height="84px" viewBox="0 0 167 84" version="1.1" xmlns="http://www.w3.org/2000/svg" xmlns:xlink="http://www.w3.org/1999/xlink">
    <!-- Generator: Sketch 53.1 (72631) - https://sketchapp.com -->
    <title>GDG - Xalapa</title>
    <desc>Created with Sketch.</desc>
    <g id="Page-2" stroke="none" stroke-width="1" fill="none" fill-rule="evenodd">
        <g id="GDG---Xalapa" transform="translate(-1.000000, -3.000000)">
            <g id="Group-17-Copy-7">
                <g id="Group-18" transform="translate(0.000000, 49.000000)" fill="#5F6368" fill-rule="nonzero">
                    <path d="M13.312,31.512 C11.1573226,31.512 9.1733424,30.9893386 7.36,29.944 C5.5466576,28.8986614 4.106672,27.4586758 3.04,25.624 C1.973328,23.7893242 1.44,21.7626778 1.44,19.544 C1.44,17.3253222 1.973328,15.2986758 3.04,13.464 C4.106672,11.6293242 5.5466576,10.1893386 7.36,9.144 C9.1733424,8.09866144 11.1573226,7.576 13.312,7.576 C14.9973418,7.576 16.5813259,7.87466368 18.064,8.472 C19.5466741,9.06933632 20.7679952,9.91199456 21.728,11 L19.808,12.952 C19.0613296,12.0559955 18.1226723,11.3680024 16.992,10.888 C15.8613277,10.4079976 14.6453398,10.168 13.344,10.168 C11.743992,10.168 10.240007,10.5573294 8.832,11.336 C7.42399296,12.1146706 6.29867088,13.2133262 5.456,14.632 C4.61332912,16.0506738 4.192,17.6879907 4.192,19.544 C4.192,21.4000093 4.61332912,23.0373262 5.456,24.456 C6.29867088,25.8746738 7.42399296,26.9733294 8.832,27.752 C10.240007,28.5306706 11.743992,28.92 13.344,28.92 C14.8800077,28.92 16.1653282,28.6800024 17.2,28.2 C18.2346718,27.7199976 19.1253296,27.0853373 19.872,26.296 C20.4266694,25.6986637 20.874665,24.9786709 21.216,24.136 C21.557335,23.2933291 21.7706662,22.3600051 21.856,21.336 L13.376,21.336 L13.376,18.808 L24.384,18.808 C24.4906672,19.4053363 24.544,19.9599974 24.544,20.472 C24.544,21.880007 24.3200022,23.25066 23.872,24.584 C23.4239978,25.91734 22.7093382,27.0853283 21.728,28.088 C19.6159894,30.3706781 16.8106842,31.512 13.312,31.512 Z M27.7167994,8.088 L34.6287994,8.088 C36.9754778,8.088 39.0234573,8.57332848 40.7727994,9.544 C42.5221415,10.5146715 43.866128,11.8639914 44.8047994,13.592 C45.7434708,15.3200086 46.2127994,17.3039888 46.2127994,19.544 C46.2127994,21.7840112 45.7434708,23.7679914 44.8047994,25.496 C43.866128,27.2240086 42.5221415,28.5733285 40.7727994,29.544 C39.0234573,30.5146715 36.9754778,31 34.6287994,31 L27.7167994,31 L27.7167994,8.088 Z M34.6287994,28.408 C37.3381463,28.408 39.4874581,27.6293411 41.0767994,26.072 C42.6661407,24.5146589 43.4607994,22.3386806 43.4607994,19.544 C43.4607994,16.7493194 42.6661407,14.5733411 41.0767994,13.016 C39.4874581,11.4586589 37.3381463,10.68 34.6287994,10.68 L30.4367994,10.68 L30.4367994,28.408 L34.6287994,28.408 Z M60.1055988,31.512 C57.9509214,31.512 55.9669412,30.9893386 54.1535988,29.944 C52.3402564,28.8986614 50.9002708,27.4586758 49.8335988,25.624 C48.7669268,23.7893242 48.2335988,21.7626778 48.2335988,19.544 C48.2335988,17.3253222 48.7669268,15.2986758 49.8335988,13.464 C50.9002708,11.6293242 52.3402564,10.1893386 54.1535988,9.144 C55.9669412,8.09866144 57.9509214,7.576 60.1055988,7.576 C61.7909406,7.576 63.3749247,7.87466368 64.8575988,8.472 C66.3402729,9.06933632 67.561594,9.91199456 68.5215988,11 L66.6015988,12.952 C65.8549284,12.0559955 64.9162711,11.3680024 63.7855988,10.888 C62.6549265,10.4079976 61.4389386,10.168 60.1375988,10.168 C58.5375908,10.168 57.0336058,10.5573294 55.6255988,11.336 C54.2175918,12.1146706 53.0922697,13.2133262 52.2495988,14.632 C51.4069279,16.0506738 50.9855988,17.6879907 50.9855988,19.544 C50.9855988,21.4000093 51.4069279,23.0373262 52.2495988,24.456 C53.0922697,25.8746738 54.2175918,26.9733294 55.6255988,27.752 C57.0336058,28.5306706 58.5375908,28.92 60.1375988,28.92 C61.6736065,28.92 62.958927,28.6800024 63.9935988,28.2 C65.0282706,27.7199976 65.9189284,27.0853373 66.6655988,26.296 C67.2202682,25.6986637 67.6682638,24.9786709 68.0095988,24.136 C68.3509338,23.2933291 68.564265,22.3600051 68.6495988,21.336 L60.1695988,21.336 L60.1695988,18.808 L71.1775988,18.808 C71.284266,19.4053363 71.3375988,19.9599974 71.3375988,20.472 C71.3375988,21.880007 71.113601,23.25066 70.6655988,24.584 C70.2175966,25.91734 69.502937,27.0853283 68.5215988,28.088 C66.4095882,30.3706781 63.604283,31.512 60.1055988,31.512 Z" id="GDG"></path>
                    <path d="M85.32,19.16 L78.024,8.088 L81.288,8.088 L87.048,17.016 L87.176,17.016 L92.936,8.088 L96.168,8.088 L88.872,19.16 L96.616,31 L93.416,31 L87.176,21.432 L87.048,21.432 L80.776,31 L77.576,31 L85.32,19.16 Z M103.564799,31.512 C102.370127,31.512 101.303471,31.2773357 100.364799,30.808 C99.426128,30.3386643 98.700802,29.6933374 98.1887994,28.872 C97.6767968,28.0506626 97.4207994,27.1173386 97.4207994,26.072 C97.4207994,24.3439914 98.0714596,22.9946715 99.3727994,22.024 C100.674139,21.0533285 102.316789,20.568 104.300799,20.568 C105.282138,20.568 106.194129,20.6746656 107.036799,20.888 C107.87947,21.1013344 108.524797,21.3466653 108.972799,21.624 L108.972799,20.632 C108.972799,19.4159939 108.546137,18.4400037 107.692799,17.704 C106.839462,16.9679963 105.762139,16.6 104.460799,16.6 C103.564795,16.6 102.72747,16.7973314 101.948799,17.192 C101.170129,17.5866686 100.556802,18.1359965 100.108799,18.84 L98.0607994,17.304 C98.7008026,16.3226618 99.5861271,15.5546694 100.716799,15 C101.847472,14.4453306 103.095459,14.168 104.460799,14.168 C106.679477,14.168 108.418126,14.7493275 109.676799,15.912 C110.935472,17.0746725 111.564799,18.6586566 111.564799,20.664 L111.564799,31 L108.972799,31 L108.972799,28.664 L108.844799,28.664 C108.375464,29.4533373 107.671471,30.1253306 106.732799,30.68 C105.794128,31.2346694 104.738139,31.512 103.564799,31.512 Z M103.820799,29.112 C104.738137,29.112 105.591462,28.8773357 106.380799,28.408 C107.170137,27.9386643 107.799464,27.3093373 108.268799,26.52 C108.738135,25.7306627 108.972799,24.8666714 108.972799,23.928 C108.460797,23.586665 107.83147,23.3093344 107.084799,23.096 C106.338129,22.8826656 105.548804,22.776 104.716799,22.776 C103.223459,22.776 102.098137,23.0853302 101.340799,23.704 C100.583462,24.3226698 100.204799,25.1226618 100.204799,26.104 C100.204799,27.0000045 100.546129,27.7253306 101.228799,28.28 C101.911469,28.8346694 102.775461,29.112 103.820799,29.112 Z M114.481599,8.088 L117.201599,8.088 L117.201599,31 L114.481599,31 L114.481599,8.088 Z M125.430398,31.512 C124.235726,31.512 123.16907,31.2773357 122.230398,30.808 C121.291727,30.3386643 120.566401,29.6933374 120.054398,28.872 C119.542396,28.0506626 119.286398,27.1173386 119.286398,26.072 C119.286398,24.3439914 119.937058,22.9946715 121.238398,22.024 C122.539738,21.0533285 124.182388,20.568 126.166398,20.568 C127.147736,20.568 128.059727,20.6746656 128.902398,20.888 C129.745069,21.1013344 130.390396,21.3466653 130.838398,21.624 L130.838398,20.632 C130.838398,19.4159939 130.411736,18.4400037 129.558398,17.704 C128.705061,16.9679963 127.627738,16.6 126.326398,16.6 C125.430394,16.6 124.593069,16.7973314 123.814398,17.192 C123.035728,17.5866686 122.4224,18.1359965 121.974398,18.84 L119.926398,17.304 C120.566401,16.3226618 121.451726,15.5546694 122.582398,15 C123.713071,14.4453306 124.961058,14.168 126.326398,14.168 C128.545076,14.168 130.283725,14.7493275 131.542398,15.912 C132.801071,17.0746725 133.430398,18.6586566 133.430398,20.664 L133.430398,31 L130.838398,31 L130.838398,28.664 L130.710398,28.664 C130.241063,29.4533373 129.53707,30.1253306 128.598398,30.68 C127.659727,31.2346694 126.603737,31.512 125.430398,31.512 Z M125.686398,29.112 C126.603736,29.112 127.457061,28.8773357 128.246398,28.408 C129.035735,27.9386643 129.665063,27.3093373 130.134398,26.52 C130.603734,25.7306627 130.838398,24.8666714 130.838398,23.928 C130.326396,23.586665 129.697069,23.3093344 128.950398,23.096 C128.203728,22.8826656 127.414402,22.776 126.582398,22.776 C125.089057,22.776 123.963735,23.0853302 123.206398,23.704 C122.449061,24.3226698 122.070398,25.1226618 122.070398,26.104 C122.070398,27.0000045 122.411728,27.7253306 123.094398,28.28 C123.777068,28.8346694 124.64106,29.112 125.686398,29.112 Z M136.219198,14.68 L138.811198,14.68 L138.811198,17.112 L138.939198,17.112 C139.429867,16.2799958 140.171193,15.5813362 141.163198,15.016 C142.155203,14.4506638 143.269858,14.168 144.507198,14.168 C145.979205,14.168 147.307192,14.5413296 148.491198,15.288 C149.675204,16.0346704 150.608528,17.0693267 151.291198,18.392 C151.973868,19.7146733 152.315198,21.1973251 152.315198,22.84 C152.315198,24.5040083 151.973868,25.9919934 151.291198,27.304 C150.608528,28.6160066 149.675204,29.6453296 148.491198,30.392 C147.307192,31.1386704 145.979205,31.512 144.507198,31.512 C143.269858,31.512 142.155203,31.2293362 141.163198,30.664 C140.171193,30.0986638 139.429867,29.4106707 138.939198,28.6 L138.811198,28.6 L138.939198,30.84 L138.939198,37.912 L136.219198,37.912 L136.219198,14.68 Z M144.219198,29.048 C145.157869,29.048 146.043193,28.7920026 146.875198,28.28 C147.707202,27.7679974 148.368528,27.0426714 148.859198,26.104 C149.349867,25.1653286 149.595198,24.0773395 149.595198,22.84 C149.595198,21.6026605 149.349867,20.5146714 148.859198,19.576 C148.368528,18.6373286 147.707202,17.9120026 146.875198,17.4 C146.043193,16.8879974 145.157869,16.632 144.219198,16.632 C143.259193,16.632 142.368535,16.8879974 141.547198,17.4 C140.72586,17.9120026 140.064533,18.6373286 139.563198,19.576 C139.061862,20.5146714 138.811198,21.6026605 138.811198,22.84 C138.811198,24.0773395 139.061862,25.1653286 139.563198,26.104 C140.064533,27.0426714 140.72586,27.7679974 141.547198,28.28 C142.368535,28.7920026 143.259193,29.048 144.219198,29.048 Z M159.839997,31.512 C158.645324,31.512 157.578668,31.2773357 156.639997,30.808 C155.701326,30.3386643 154.976,29.6933374 154.463997,28.872 C153.951994,28.0506626 153.695997,27.1173386 153.695997,26.072 C153.695997,24.3439914 154.346657,22.9946715 155.647997,22.024 C156.949337,21.0533285 158.591987,20.568 160.575997,20.568 C161.557335,20.568 162.469326,20.6746656 163.311997,20.888 C164.154668,21.1013344 164.799995,21.3466653 165.247997,21.624 L165.247997,20.632 C165.247997,19.4159939 164.821335,18.4400037 163.967997,17.704 C163.114659,16.9679963 162.037337,16.6 160.735997,16.6 C159.839993,16.6 159.002668,16.7973314 158.223997,17.192 C157.445326,17.5866686 156.831999,18.1359965 156.383997,18.84 L154.335997,17.304 C154.976,16.3226618 155.861325,15.5546694 156.991997,15 C158.122669,14.4453306 159.370657,14.168 160.735997,14.168 C162.954675,14.168 164.693324,14.7493275 165.951997,15.912 C167.21067,17.0746725 167.839997,18.6586566 167.839997,20.664 L167.839997,31 L165.247997,31 L165.247997,28.664 L165.119997,28.664 C164.650661,29.4533373 163.946668,30.1253306 163.007997,30.68 C162.069326,31.2346694 161.013336,31.512 159.839997,31.512 Z M160.095997,29.112 C161.013335,29.112 161.86666,28.8773357 162.655997,28.408 C163.445334,27.9386643 164.074661,27.3093373 164.543997,26.52 C165.013333,25.7306627 165.247997,24.8666714 165.247997,23.928 C164.735994,23.586665 164.106667,23.3093344 163.359997,23.096 C162.613327,22.8826656 161.824001,22.776 160.991997,22.776 C159.498656,22.776 158.373334,23.0853302 157.615997,23.704 C156.85866,24.3226698 156.479997,25.1226618 156.479997,26.104 C156.479997,27.0000045 156.821327,27.7253306 157.503997,28.28 C158.186667,28.8346694 159.050658,29.112 160.095997,29.112 Z" id="Xalapa"></path>
                </g>
                <g id="Group-16" transform="translate(43.000000, 0.000000)">
                    <rect id="Rectangle" fill="#FABB04" transform="translate(64.000000, 28.500000) rotate(60.000000) translate(-64.000000, -28.500000) " x="58" y="9.5" width="12" height="38" rx="6"></rect>
                    <path d="M20.7290194,-3.48825882 L20.7290194,-3.48825882 C24.0427279,-3.48825882 26.7290194,-0.801967317 26.7290194,2.51174118 L26.7290194,28.5117412 C26.7290194,31.8254497 24.0427279,34.5117412 20.7290194,34.5117412 L20.7290194,34.5117412 C17.4153109,34.5117412 14.7290194,31.8254497 14.7290194,28.5117412 L14.7290194,2.51174118 C14.7290194,-0.801967317 17.4153109,-3.48825882 20.7290194,-3.48825882 Z" id="Rectangle-Copy-2" fill="#E94335" transform="translate(20.729019, 15.511741) rotate(60.000000) translate(-20.729019, -15.511741) "></path>
                    <rect id="Rectangle-Copy-3" fill="#4284F3" transform="translate(20.000000, 29.000000) scale(1, -1) rotate(60.000000) translate(-20.000000, -29.000000) " x="14" y="10" width="12" height="38" rx="6"></rect>
                    <path d="M64.0416331,-3.48825882 L64.0416331,-3.48825882 C67.3553416,-3.48825882 70.0416331,-0.801967317 70.0416331,2.51174118 L70.0416331,28.5117412 C70.0416331,31.8254497 67.3553416,34.5117412 64.0416331,34.5117412 L64.0416331,34.5117412 C60.7279246,34.5117412 58.0416331,31.8254497 58.0416331,28.5117412 L58.0416331,2.51174118 C58.0416331,-0.801967317 60.7279246,-3.48825882 64.0416331,-3.48825882 Z" id="Rectangle-Copy-5" fill="#0F9D58" transform="translate(64.041633, 15.511741) scale(1, -1) rotate(60.000000) translate(-64.041633, -15.511741) "></path>
                </g>
            </g>
        </g>
    </g>
</svg>