<?xml version="1.0" encoding="UTF-8"?>
<svg width="228px" height="84px" viewBox="0 0 228 84" version="1.1" xmlns="http://www.w3.org/2000/svg" xmlns:xlink="http://www.w3.org/1999/xlink">
    <!-- Generator: Sketch 53.1 (72631) - https://sketchapp.com -->
    <title>GDG - Campeche</title>
    <desc>Created with Sketch.</desc>
    <g id="Page-2" stroke="none" stroke-width="1" fill="none" fill-rule="evenodd">
        <g id="GDG---Campeche" transform="translate(-1.000000, -3.000000)">
            <g id="Group-17-Copy-7">
                <g id="Group-18" transform="translate(0.000000, 49.000000)" fill="#5F6368" fill-rule="nonzero">
                    <path d="M13.312,31.512 C11.1573226,31.512 9.1733424,30.9893386 7.36,29.944 C5.5466576,28.8986614 4.106672,27.4586758 3.04,25.624 C1.973328,23.7893242 1.44,21.7626778 1.44,19.544 C1.44,17.3253222 1.973328,15.2986758 3.04,13.464 C4.106672,11.6293242 5.5466576,10.1893386 7.36,9.144 C9.1733424,8.09866144 11.1573226,7.576 13.312,7.576 C14.9973418,7.576 16.5813259,7.87466368 18.064,8.472 C19.5466741,9.06933632 20.7679952,9.91199456 21.728,11 L19.808,12.952 C19.0613296,12.0559955 18.1226723,11.3680024 16.992,10.888 C15.8613277,10.4079976 14.6453398,10.168 13.344,10.168 C11.743992,10.168 10.240007,10.5573294 8.832,11.336 C7.42399296,12.1146706 6.29867088,13.2133262 5.456,14.632 C4.61332912,16.0506738 4.192,17.6879907 4.192,19.544 C4.192,21.4000093 4.61332912,23.0373262 5.456,24.456 C6.29867088,25.8746738 7.42399296,26.9733294 8.832,27.752 C10.240007,28.5306706 11.743992,28.92 13.344,28.92 C14.8800077,28.92 16.1653282,28.6800024 17.2,28.2 C18.2346718,27.7199976 19.1253296,27.0853373 19.872,26.296 C20.4266694,25.6986637 20.874665,24.9786709 21.216,24.136 C21.557335,23.2933291 21.7706662,22.3600051 21.856,21.336 L13.376,21.336 L13.376,18.808 L24.384,18.808 C24.4906672,19.4053363 24.544,19.9599974 24.544,20.472 C24.544,21.880007 24.3200022,23.25066 23.872,24.584 C23.4239978,25.91734 22.7093382,27.0853283 21.728,28.088 C19.6159894,30.3706781 16.8106842,31.512 13.312,31.512 Z M27.7167994,8.088 L34.6287994,8.088 C36.9754778,8.088 39.0234573,8.57332848 40.7727994,9.544 C42.5221415,10.5146715 43.866128,11.8639914 44.8047994,13.592 C45.7434708,15.3200086 46.2127994,17.3039888 46.2127994,19.544 C46.2127994,21.7840112 45.7434708,23.7679914 44.8047994,25.496 C43.866128,27.2240086 42.5221415,28.5733285 40.7727994,29.544 C39.0234573,30.5146715 36.9754778,31 34.6287994,31 L27.7167994,31 L27.7167994,8.088 Z M34.6287994,28.408 C37.3381463,28.408 39.4874581,27.6293411 41.0767994,26.072 C42.6661407,24.5146589 43.4607994,22.3386806 43.4607994,19.544 C43.4607994,16.7493194 42.6661407,14.5733411 41.0767994,13.016 C39.4874581,11.4586589 37.3381463,10.68 34.6287994,10.68 L30.4367994,10.68 L30.4367994,28.408 L34.6287994,28.408 Z M60.1055988,31.512 C57.9509214,31.512 55.9669412,30.9893386 54.1535988,29.944 C52.3402564,28.8986614 50.9002708,27.4586758 49.8335988,25.624 C48.7669268,23.7893242 48.2335988,21.7626778 48.2335988,19.544 C48.2335988,17.3253222 48.7669268,15.2986758 49.8335988,13.464 C50.9002708,11.6293242 52.3402564,10.1893386 54.1535988,9.144 C55.9669412,8.09866144 57.9509214,7.576 60.1055988,7.576 C61.7909406,7.576 63.3749247,7.87466368 64.8575988,8.472 C66.3402729,9.06933632 67.561594,9.91199456 68.5215988,11 L66.6015988,12.952 C65.8549284,12.0559955 64.9162711,11.3680024 63.7855988,10.888 C62.6549265,10.4079976 61.4389386,10.168 60.1375988,10.168 C58.5375908,10.168 57.0336058,10.5573294 55.6255988,11.336 C54.2175918,12.1146706 53.0922697,13.2133262 52.2495988,14.632 C51.4069279,16.0506738 50.9855988,17.6879907 50.9855988,19.544 C50.9855988,21.4000093 51.4069279,23.0373262 52.2495988,24.456 C53.0922697,25.8746738 54.2175918,26.9733294 55.6255988,27.752 C57.0336058,28.5306706 58.5375908,28.92 60.1375988,28.92 C61.6736065,28.92 62.958927,28.6800024 63.9935988,28.2 C65.0282706,27.7199976 65.9189284,27.0853373 66.6655988,26.296 C67.2202682,25.6986637 67.6682638,24.9786709 68.0095988,24.136 C68.3509338,23.2933291 68.564265,22.3600051 68.6495988,21.336 L60.1695988,21.336 L60.1695988,18.808 L71.1775988,18.808 C71.284266,19.4053363 71.3375988,19.9599974 71.3375988,20.472 C71.3375988,21.880007 71.113601,23.25066 70.6655988,24.584 C70.2175966,25.91734 69.502937,27.0853283 68.5215988,28.088 C66.4095882,30.3706781 63.604283,31.512 60.1055988,31.512 Z" id="GDG"></path>
                    <path d="M90.312,31.512 C88.0933222,31.512 86.0773424,30.9893386 84.264,29.944 C82.4506576,28.8986614 81.0266718,27.4640091 79.992,25.64 C78.9573282,23.8159909 78.44,21.7840112 78.44,19.544 C78.44,17.3039888 78.9573282,15.2720091 79.992,13.448 C81.0266718,11.6239909 82.4506576,10.1893386 84.264,9.144 C86.0773424,8.09866144 88.0933222,7.576 90.312,7.576 C92.0186752,7.576 93.5813262,7.8959968 95,8.536 C96.4186738,9.1760032 97.6506614,10.1039939 98.696,11.32 L96.744,13.208 C95.869329,12.1626614 94.9146718,11.3946691 93.88,10.904 C92.8453282,10.4133309 91.6560067,10.168 90.312,10.168 C88.6479917,10.168 87.1226736,10.5573294 85.736,11.336 C84.3493264,12.1146706 83.2453374,13.2133262 82.424,14.632 C81.6026626,16.0506738 81.192,17.6879907 81.192,19.544 C81.192,21.4000093 81.6026626,23.0373262 82.424,24.456 C83.2453374,25.8746738 84.3493264,26.9733294 85.736,27.752 C87.1226736,28.5306706 88.6479917,28.92 90.312,28.92 C93.0853472,28.92 95.442657,27.7786781 97.384,25.496 L99.368,27.416 C98.3226614,28.674673 97.0160078,29.6719963 95.448,30.408 C93.8799922,31.1440037 92.1680093,31.512 90.312,31.512 Z M106.444799,31.512 C105.250127,31.512 104.183471,31.2773357 103.244799,30.808 C102.306128,30.3386643 101.580802,29.6933374 101.068799,28.872 C100.556797,28.0506626 100.300799,27.1173386 100.300799,26.072 C100.300799,24.3439914 100.95146,22.9946715 102.252799,22.024 C103.554139,21.0533285 105.196789,20.568 107.180799,20.568 C108.162138,20.568 109.074129,20.6746656 109.916799,20.888 C110.75947,21.1013344 111.404797,21.3466653 111.852799,21.624 L111.852799,20.632 C111.852799,19.4159939 111.426137,18.4400037 110.572799,17.704 C109.719462,16.9679963 108.642139,16.6 107.340799,16.6 C106.444795,16.6 105.60747,16.7973314 104.828799,17.192 C104.050129,17.5866686 103.436802,18.1359965 102.988799,18.84 L100.940799,17.304 C101.580803,16.3226618 102.466127,15.5546694 103.596799,15 C104.727472,14.4453306 105.975459,14.168 107.340799,14.168 C109.559477,14.168 111.298126,14.7493275 112.556799,15.912 C113.815472,17.0746725 114.444799,18.6586566 114.444799,20.664 L114.444799,31 L111.852799,31 L111.852799,28.664 L111.724799,28.664 C111.255464,29.4533373 110.551471,30.1253306 109.612799,30.68 C108.674128,31.2346694 107.618139,31.512 106.444799,31.512 Z M106.700799,29.112 C107.618137,29.112 108.471462,28.8773357 109.260799,28.408 C110.050137,27.9386643 110.679464,27.3093373 111.148799,26.52 C111.618135,25.7306627 111.852799,24.8666714 111.852799,23.928 C111.340797,23.586665 110.71147,23.3093344 109.964799,23.096 C109.218129,22.8826656 108.428804,22.776 107.596799,22.776 C106.103459,22.776 104.978137,23.0853302 104.220799,23.704 C103.463462,24.3226698 103.084799,25.1226618 103.084799,26.104 C103.084799,27.0000045 103.426129,27.7253306 104.108799,28.28 C104.791469,28.8346694 105.655461,29.112 106.700799,29.112 Z M117.361599,14.68 L119.953599,14.68 L119.953599,17.08 L120.081599,17.08 C120.550934,16.2479958 121.254927,15.5546694 122.193599,15 C123.13227,14.4453306 124.12426,14.168 125.169599,14.168 C126.364271,14.168 127.404261,14.4559971 128.289599,15.032 C129.174937,15.6080029 129.809597,16.3759952 130.193599,17.336 C130.769602,16.3759952 131.532261,15.6080029 132.481599,15.032 C133.430937,14.4559971 134.534926,14.168 135.793599,14.168 C137.670942,14.168 139.084261,14.738661 140.033599,15.88 C140.982937,17.021339 141.457599,18.5733235 141.457599,20.536 L141.457599,31 L138.769599,31 L138.769599,20.952 C138.769599,19.4373258 138.460269,18.3386701 137.841599,17.656 C137.222929,16.9733299 136.305605,16.632 135.089599,16.632 C134.278928,16.632 133.542935,16.8666643 132.881599,17.336 C132.220262,17.8053357 131.702934,18.4346627 131.329599,19.224 C130.956264,20.0133373 130.769599,20.8666621 130.769599,21.784 L130.769599,31 L128.049599,31 L128.049599,20.984 C128.049599,19.4479923 127.740269,18.3386701 127.121599,17.656 C126.502929,16.9733299 125.596271,16.632 124.401599,16.632 C123.590928,16.632 122.854935,16.8719976 122.193599,17.352 C121.532262,17.8320024 121.014934,18.471996 120.641599,19.272 C120.268264,20.072004 120.081599,20.9306621 120.081599,21.848 L120.081599,31 L117.361599,31 L117.361599,14.68 Z M144.406398,14.68 L146.998398,14.68 L146.998398,17.112 L147.126398,17.112 C147.617067,16.2799958 148.358393,15.5813362 149.350398,15.016 C150.342403,14.4506638 151.457059,14.168 152.694398,14.168 C154.166406,14.168 155.494392,14.5413296 156.678398,15.288 C157.862404,16.0346704 158.795728,17.0693267 159.478398,18.392 C160.161068,19.7146733 160.502398,21.1973251 160.502398,22.84 C160.502398,24.5040083 160.161068,25.9919934 159.478398,27.304 C158.795728,28.6160066 157.862404,29.6453296 156.678398,30.392 C155.494392,31.1386704 154.166406,31.512 152.694398,31.512 C151.457059,31.512 150.342403,31.2293362 149.350398,30.664 C148.358393,30.0986638 147.617067,29.4106707 147.126398,28.6 L146.998398,28.6 L147.126398,30.84 L147.126398,37.912 L144.406398,37.912 L144.406398,14.68 Z M152.406398,29.048 C153.34507,29.048 154.230394,28.7920026 155.062398,28.28 C155.894402,27.7679974 156.555729,27.0426714 157.046398,26.104 C157.537067,25.1653286 157.782398,24.0773395 157.782398,22.84 C157.782398,21.6026605 157.537067,20.5146714 157.046398,19.576 C156.555729,18.6373286 155.894402,17.9120026 155.062398,17.4 C154.230394,16.8879974 153.34507,16.632 152.406398,16.632 C151.446393,16.632 150.555736,16.8879974 149.734398,17.4 C148.913061,17.9120026 148.251734,18.6373286 147.750398,19.576 C147.249062,20.5146714 146.998398,21.6026605 146.998398,22.84 C146.998398,24.0773395 147.249062,25.1653286 147.750398,26.104 C148.251734,27.0426714 148.913061,27.7679974 149.734398,28.28 C150.555736,28.7920026 151.446393,29.048 152.406398,29.048 Z M170.075198,31.512 C168.517856,31.512 167.120537,31.1386704 165.883198,30.392 C164.645858,29.6453296 163.680534,28.6160066 162.987198,27.304 C162.293861,25.9919934 161.947198,24.5146749 161.947198,22.872 C161.947198,21.3146589 162.272528,19.86934 162.923198,18.536 C163.573868,17.20266 164.501858,16.1413373 165.707198,15.352 C166.912537,14.5626627 168.293856,14.168 169.851198,14.168 C171.451206,14.168 172.837858,14.5253298 174.011198,15.24 C175.184537,15.9546702 176.085861,16.941327 176.715198,18.2 C177.344534,19.458673 177.659198,20.8986586 177.659198,22.52 C177.659198,22.7760013 177.637864,23.0533318 177.595198,23.352 L164.667198,23.352 C164.731198,24.5893395 165.029862,25.6346624 165.563198,26.488 C166.096534,27.3413376 166.77386,27.9813312 167.595198,28.408 C168.416535,28.8346688 169.275193,29.048 170.171198,29.048 C172.304542,29.048 173.915192,28.0666765 175.003198,26.104 L177.307198,27.224 C176.624528,28.5253398 175.675204,29.5653294 174.459198,30.344 C173.243192,31.1226706 171.781873,31.512 170.075198,31.512 Z M174.779198,21.112 C174.736531,20.4293299 174.544533,19.7466701 174.203198,19.064 C173.861863,18.3813299 173.328535,17.8053357 172.603198,17.336 C171.877861,16.8666643 170.960536,16.632 169.851198,16.632 C168.571191,16.632 167.483202,17.0426626 166.587198,17.864 C165.691193,18.6853374 165.104532,19.7679933 164.827198,21.112 L174.779198,21.112 Z M187.519997,31.512 C185.941322,31.512 184.52267,31.1333371 183.263997,30.376 C182.005324,29.6186629 181.024001,28.5840066 180.319997,27.272 C179.615993,25.9599934 179.263997,24.4826749 179.263997,22.84 C179.263997,21.1973251 179.615993,19.7146733 180.319997,18.392 C181.024001,17.0693267 182.005324,16.0346704 183.263997,15.288 C184.52267,14.5413296 185.941322,14.168 187.519997,14.168 C189.290673,14.168 190.778658,14.5786626 191.983997,15.4 C193.189336,16.2213374 194.047994,17.3146598 194.559997,18.68 L192.095997,19.704 C191.690662,18.7013283 191.088001,17.9386693 190.287997,17.416 C189.487993,16.8933307 188.522669,16.632 187.391997,16.632 C186.431992,16.632 185.536001,16.8933307 184.703997,17.416 C183.871993,17.9386693 183.205333,18.6693286 182.703997,19.608 C182.202661,20.5466714 181.951997,21.6239939 181.951997,22.84 C181.951997,24.0560061 182.202661,25.1333286 182.703997,26.072 C183.205333,27.0106714 183.871993,27.7413307 184.703997,28.264 C185.536001,28.7866693 186.431992,29.048 187.391997,29.048 C188.544003,29.048 189.535993,28.781336 190.367997,28.248 C191.200001,27.714664 191.818662,26.9573382 192.223997,25.976 L194.655997,27 C194.101328,28.3440067 193.21067,29.4319958 191.983997,30.264 C190.757324,31.0960042 189.269339,31.512 187.519997,31.512 Z M196.740796,8.088 L199.460796,8.088 L199.460796,14.84 L199.332796,17.08 L199.460796,17.08 C199.908799,16.2479958 200.618125,15.5546694 201.588796,15 C202.559468,14.4453306 203.620791,14.168 204.772796,14.168 C206.756806,14.168 208.271458,14.7493275 209.316796,15.912 C210.362135,17.0746725 210.884796,18.6159904 210.884796,20.536 L210.884796,31 L208.164796,31 L208.164796,20.952 C208.164796,19.4799926 207.791467,18.3920035 207.044796,17.688 C206.298126,16.9839965 205.327469,16.632 204.132796,16.632 C203.279459,16.632 202.495467,16.8879974 201.780796,17.4 C201.066126,17.9120026 200.500798,18.5733293 200.084796,19.384 C199.668794,20.1946707 199.460796,21.037329 199.460796,21.912 L199.460796,31 L196.740796,31 L196.740796,8.088 Z M221.193596,31.512 C219.636255,31.512 218.238935,31.1386704 217.001596,30.392 C215.764256,29.6453296 214.798933,28.6160066 214.105596,27.304 C213.412259,25.9919934 213.065596,24.5146749 213.065596,22.872 C213.065596,21.3146589 213.390926,19.86934 214.041596,18.536 C214.692266,17.20266 215.620256,16.1413373 216.825596,15.352 C218.030935,14.5626627 219.412255,14.168 220.969596,14.168 C222.569604,14.168 223.956257,14.5253298 225.129596,15.24 C226.302935,15.9546702 227.204259,16.941327 227.833596,18.2 C228.462932,19.458673 228.777596,20.8986586 228.777596,22.52 C228.777596,22.7760013 228.756263,23.0533318 228.713596,23.352 L215.785596,23.352 C215.849596,24.5893395 216.14826,25.6346624 216.681596,26.488 C217.214932,27.3413376 217.892258,27.9813312 218.713596,28.408 C219.534933,28.8346688 220.393591,29.048 221.289596,29.048 C223.42294,29.048 225.03359,28.0666765 226.121596,26.104 L228.425596,27.224 C227.742926,28.5253398 226.793602,29.5653294 225.577596,30.344 C224.36159,31.1226706 222.900271,31.512 221.193596,31.512 Z M225.897596,21.112 C225.854929,20.4293299 225.662931,19.7466701 225.321596,19.064 C224.980261,18.3813299 224.446933,17.8053357 223.721596,17.336 C222.996259,16.8666643 222.078935,16.632 220.969596,16.632 C219.689589,16.632 218.6016,17.0426626 217.705596,17.864 C216.809591,18.6853374 216.222931,19.7679933 215.945596,21.112 L225.897596,21.112 Z" id="Campeche"></path>
                </g>
                <g id="Group-16" transform="translate(73.000000, 0.000000)">
                    <rect id="Rectangle" fill="#FABB04" transform="translate(64.000000, 28.500000) rotate(60.000000) translate(-64.000000, -28.500000) " x="58" y="9.5" width="12" height="38" rx="6"></rect>
                    <path d="M20.7290194,-3.48825882 L20.7290194,-3.48825882 C24.0427279,-3.48825882 26.7290194,-0.801967317 26.7290194,2.51174118 L26.7290194,28.5117412 C26.7290194,31.8254497 24.0427279,34.5117412 20.7290194,34.5117412 L20.7290194,34.5117412 C17.4153109,34.5117412 14.7290194,31.8254497 14.7290194,28.5117412 L14.7290194,2.51174118 C14.7290194,-0.801967317 17.4153109,-3.48825882 20.7290194,-3.48825882 Z" id="Rectangle-Copy-2" fill="#E94335" transform="translate(20.729019, 15.511741) rotate(60.000000) translate(-20.729019, -15.511741) "></path>
                    <rect id="Rectangle-Copy-3" fill="#4284F3" transform="translate(20.000000, 29.000000) scale(1, -1) rotate(60.000000) translate(-20.000000, -29.000000) " x="14" y="10" width="12" height="38" rx="6"></rect>
                    <path d="M64.0416331,-3.48825882 L64.0416331,-3.48825882 C67.3553416,-3.48825882 70.0416331,-0.801967317 70.0416331,2.51174118 L70.0416331,28.5117412 C70.0416331,31.8254497 67.3553416,34.5117412 64.0416331,34.5117412 L64.0416331,34.5117412 C60.7279246,34.5117412 58.0416331,31.8254497 58.0416331,28.5117412 L58.0416331,2.51174118 C58.0416331,-0.801967317 60.7279246,-3.48825882 64.0416331,-3.48825882 Z" id="Rectangle-Copy-5" fill="#0F9D58" transform="translate(64.041633, 15.511741) scale(1, -1) rotate(60.000000) translate(-64.041633, -15.511741) "></path>
                </g>
            </g>
        </g>
    </g>
</svg>