<?xml version="1.0" encoding="UTF-8"?>
<svg width="170px" height="78px" viewBox="0 0 170 78" version="1.1" xmlns="http://www.w3.org/2000/svg" xmlns:xlink="http://www.w3.org/1999/xlink">
    <!-- Generator: Sketch 53.1 (72631) - https://sketchapp.com -->
    <title>GDG - Incode</title>
    <desc>Created with Sketch.</desc>
    <g id="Page-2" stroke="none" stroke-width="1" fill="none" fill-rule="evenodd">
        <g id="GDG---Incode" transform="translate(-1.000000, -3.000000)">
            <g id="Group-18" transform="translate(0.000000, 49.000000)" fill="#5F6368" fill-rule="nonzero">
                <path d="M13.312,31.512 C11.1573226,31.512 9.1733424,30.9893386 7.36,29.944 C5.5466576,28.8986614 4.106672,27.4586758 3.04,25.624 C1.973328,23.7893242 1.44,21.7626778 1.44,19.544 C1.44,17.3253222 1.973328,15.2986758 3.04,13.464 C4.106672,11.6293242 5.5466576,10.1893386 7.36,9.144 C9.1733424,8.09866144 11.1573226,7.576 13.312,7.576 C14.9973418,7.576 16.5813259,7.87466368 18.064,8.472 C19.5466741,9.06933632 20.7679952,9.91199456 21.728,11 L19.808,12.952 C19.0613296,12.0559955 18.1226723,11.3680024 16.992,10.888 C15.8613277,10.4079976 14.6453398,10.168 13.344,10.168 C11.743992,10.168 10.240007,10.5573294 8.832,11.336 C7.42399296,12.1146706 6.29867088,13.2133262 5.456,14.632 C4.61332912,16.0506738 4.192,17.6879907 4.192,19.544 C4.192,21.4000093 4.61332912,23.0373262 5.456,24.456 C6.29867088,25.8746738 7.42399296,26.9733294 8.832,27.752 C10.240007,28.5306706 11.743992,28.92 13.344,28.92 C14.8800077,28.92 16.1653282,28.6800024 17.2,28.2 C18.2346718,27.7199976 19.1253296,27.0853373 19.872,26.296 C20.4266694,25.6986637 20.874665,24.9786709 21.216,24.136 C21.557335,23.2933291 21.7706662,22.3600051 21.856,21.336 L13.376,21.336 L13.376,18.808 L24.384,18.808 C24.4906672,19.4053363 24.544,19.9599974 24.544,20.472 C24.544,21.880007 24.3200022,23.25066 23.872,24.584 C23.4239978,25.91734 22.7093382,27.0853283 21.728,28.088 C19.6159894,30.3706781 16.8106842,31.512 13.312,31.512 Z M27.7167994,8.088 L34.6287994,8.088 C36.9754778,8.088 39.0234573,8.57332848 40.7727994,9.544 C42.5221415,10.5146715 43.866128,11.8639914 44.8047994,13.592 C45.7434708,15.3200086 46.2127994,17.3039888 46.2127994,19.544 C46.2127994,21.7840112 45.7434708,23.7679914 44.8047994,25.496 C43.866128,27.2240086 42.5221415,28.5733285 40.7727994,29.544 C39.0234573,30.5146715 36.9754778,31 34.6287994,31 L27.7167994,31 L27.7167994,8.088 Z M34.6287994,28.408 C37.3381463,28.408 39.4874581,27.6293411 41.0767994,26.072 C42.6661407,24.5146589 43.4607994,22.3386806 43.4607994,19.544 C43.4607994,16.7493194 42.6661407,14.5733411 41.0767994,13.016 C39.4874581,11.4586589 37.3381463,10.68 34.6287994,10.68 L30.4367994,10.68 L30.4367994,28.408 L34.6287994,28.408 Z M60.1055988,31.512 C57.9509214,31.512 55.9669412,30.9893386 54.1535988,29.944 C52.3402564,28.8986614 50.9002708,27.4586758 49.8335988,25.624 C48.7669268,23.7893242 48.2335988,21.7626778 48.2335988,19.544 C48.2335988,17.3253222 48.7669268,15.2986758 49.8335988,13.464 C50.9002708,11.6293242 52.3402564,10.1893386 54.1535988,9.144 C55.9669412,8.09866144 57.9509214,7.576 60.1055988,7.576 C61.7909406,7.576 63.3749247,7.87466368 64.8575988,8.472 C66.3402729,9.06933632 67.561594,9.91199456 68.5215988,11 L66.6015988,12.952 C65.8549284,12.0559955 64.9162711,11.3680024 63.7855988,10.888 C62.6549265,10.4079976 61.4389386,10.168 60.1375988,10.168 C58.5375908,10.168 57.0336058,10.5573294 55.6255988,11.336 C54.2175918,12.1146706 53.0922697,13.2133262 52.2495988,14.632 C51.4069279,16.0506738 50.9855988,17.6879907 50.9855988,19.544 C50.9855988,21.4000093 51.4069279,23.0373262 52.2495988,24.456 C53.0922697,25.8746738 54.2175918,26.9733294 55.6255988,27.752 C57.0336058,28.5306706 58.5375908,28.92 60.1375988,28.92 C61.6736065,28.92 62.958927,28.6800024 63.9935988,28.2 C65.0282706,27.7199976 65.9189284,27.0853373 66.6655988,26.296 C67.2202682,25.6986637 67.6682638,24.9786709 68.0095988,24.136 C68.3509338,23.2933291 68.564265,22.3600051 68.6495988,21.336 L60.1695988,21.336 L60.1695988,18.808 L71.1775988,18.808 C71.284266,19.4053363 71.3375988,19.9599974 71.3375988,20.472 C71.3375988,21.880007 71.113601,23.25066 70.6655988,24.584 C70.2175966,25.91734 69.502937,27.0853283 68.5215988,28.088 C66.4095882,30.3706781 63.604283,31.512 60.1055988,31.512 Z" id="GDG"></path>
                <path d="M79.56,8.088 L82.28,8.088 L82.28,31 L79.56,31 L79.56,8.088 Z M85.9967994,14.68 L88.5887994,14.68 L88.5887994,17.08 L88.7167994,17.08 C89.1648016,16.2693293 89.8794612,15.5813362 90.8607994,15.016 C91.8421376,14.4506638 92.8874605,14.168 93.9967994,14.168 C95.9594759,14.168 97.4581276,14.738661 98.4927994,15.88 C99.5274712,17.021339 100.044799,18.5733235 100.044799,20.536 L100.044799,31 L97.3247994,31 L97.3247994,20.952 C97.3247994,19.4373258 96.9621364,18.3386701 96.2367994,17.656 C95.5114624,16.9733299 94.5194724,16.632 93.2607994,16.632 C92.3861284,16.632 91.6021362,16.8773309 90.9087994,17.368 C90.2154626,17.8586691 89.6768013,18.503996 89.2927994,19.304 C88.9087975,20.104004 88.7167994,20.941329 88.7167994,21.816 L88.7167994,31 L85.9967994,31 L85.9967994,14.68 Z M110.481599,31.512 C108.902924,31.512 107.484272,31.1333371 106.225599,30.376 C104.966926,29.6186629 103.985602,28.5840066 103.281599,27.272 C102.577595,25.9599934 102.225599,24.4826749 102.225599,22.84 C102.225599,21.1973251 102.577595,19.7146733 103.281599,18.392 C103.985602,17.0693267 104.966926,16.0346704 106.225599,15.288 C107.484272,14.5413296 108.902924,14.168 110.481599,14.168 C112.252274,14.168 113.740259,14.5786626 114.945599,15.4 C116.150938,16.2213374 117.009596,17.3146598 117.521599,18.68 L115.057599,19.704 C114.652263,18.7013283 114.049603,17.9386693 113.249599,17.416 C112.449595,16.8933307 111.484271,16.632 110.353599,16.632 C109.393594,16.632 108.497603,16.8933307 107.665599,17.416 C106.833595,17.9386693 106.166935,18.6693286 105.665599,19.608 C105.164263,20.5466714 104.913599,21.6239939 104.913599,22.84 C104.913599,24.0560061 105.164263,25.1333286 105.665599,26.072 C106.166935,27.0106714 106.833595,27.7413307 107.665599,28.264 C108.497603,28.7866693 109.393594,29.048 110.353599,29.048 C111.505605,29.048 112.497595,28.781336 113.329599,28.248 C114.161603,27.714664 114.780263,26.9573382 115.185599,25.976 L117.617599,27 C117.062929,28.3440067 116.172272,29.4319958 114.945599,30.264 C113.718926,31.0960042 112.230941,31.512 110.481599,31.512 Z M127.062398,31.512 C125.46239,31.512 124.022405,31.1280038 122.742398,30.36 C121.462392,29.5919962 120.465068,28.5466733 119.750398,27.224 C119.035728,25.9013267 118.678398,24.440008 118.678398,22.84 C118.678398,21.239992 119.035728,19.7786733 119.750398,18.456 C120.465068,17.1333267 121.462392,16.0880038 122.742398,15.32 C124.022405,14.5519962 125.46239,14.168 127.062398,14.168 C128.662406,14.168 130.102392,14.5519962 131.382398,15.32 C132.662405,16.0880038 133.659728,17.1333267 134.374398,18.456 C135.089068,19.7786733 135.446398,21.239992 135.446398,22.84 C135.446398,24.440008 135.089068,25.9013267 134.374398,27.224 C133.659728,28.5466733 132.662405,29.5919962 131.382398,30.36 C130.102392,31.1280038 128.662406,31.512 127.062398,31.512 Z M127.062398,29.048 C128.06507,29.048 128.998394,28.7973358 129.862398,28.296 C130.726403,27.7946642 131.419729,27.0746714 131.942398,26.136 C132.465067,25.1973286 132.726398,24.098673 132.726398,22.84 C132.726398,21.581327 132.465067,20.4826714 131.942398,19.544 C131.419729,18.6053286 130.726403,17.8853358 129.862398,17.384 C128.998394,16.8826642 128.06507,16.632 127.062398,16.632 C126.059727,16.632 125.121069,16.8826642 124.246398,17.384 C123.371727,17.8853358 122.673067,18.6053286 122.150398,19.544 C121.627729,20.4826714 121.366398,21.581327 121.366398,22.84 C121.366398,24.098673 121.627729,25.1973286 122.150398,26.136 C122.673067,27.0746714 123.371727,27.7946642 124.246398,28.296 C125.121069,28.7973358 126.059727,29.048 127.062398,29.048 Z M144.699198,31.512 C143.22719,31.512 141.899204,31.1386704 140.715198,30.392 C139.531192,29.6453296 138.597868,28.6160066 137.915198,27.304 C137.232528,25.9919934 136.891198,24.5040083 136.891198,22.84 C136.891198,21.1973251 137.232528,19.7146733 137.915198,18.392 C138.597868,17.0693267 139.531192,16.0346704 140.715198,15.288 C141.899204,14.5413296 143.22719,14.168 144.699198,14.168 C145.936537,14.168 147.045859,14.4506638 148.027198,15.016 C149.008536,15.5813362 149.755195,16.2799958 150.267198,17.112 L150.395198,17.112 L150.267198,14.84 L150.267198,8.088 L152.987198,8.088 L152.987198,31 L150.395198,31 L150.395198,28.6 L150.267198,28.6 C149.755195,29.4106707 149.008536,30.0986638 148.027198,30.664 C147.045859,31.2293362 145.936537,31.512 144.699198,31.512 Z M144.987198,29.048 C145.947202,29.048 146.83786,28.7920026 147.659198,28.28 C148.480535,27.7679974 149.141862,27.0426714 149.643198,26.104 C150.144533,25.1653286 150.395198,24.0773395 150.395198,22.84 C150.395198,21.6026605 150.144533,20.5146714 149.643198,19.576 C149.141862,18.6373286 148.480535,17.9120026 147.659198,17.4 C146.83786,16.8879974 145.947202,16.632 144.987198,16.632 C144.048526,16.632 143.163202,16.8879974 142.331198,17.4 C141.499193,17.9120026 140.832533,18.6426619 140.331198,19.592 C139.829862,20.5413381 139.579198,21.6239939 139.579198,22.84 C139.579198,24.0560061 139.829862,25.1386619 140.331198,26.088 C140.832533,27.0373381 141.499193,27.7679974 142.331198,28.28 C143.163202,28.7920026 144.048526,29.048 144.987198,29.048 Z M163.263997,31.512 C161.706656,31.512 160.309337,31.1386704 159.071997,30.392 C157.834657,29.6453296 156.869334,28.6160066 156.175997,27.304 C155.48266,25.9919934 155.135997,24.5146749 155.135997,22.872 C155.135997,21.3146589 155.461327,19.86934 156.111997,18.536 C156.762667,17.20266 157.690658,16.1413373 158.895997,15.352 C160.101336,14.5626627 161.482656,14.168 163.039997,14.168 C164.640005,14.168 166.026658,14.5253298 167.199997,15.24 C168.373336,15.9546702 169.274661,16.941327 169.903997,18.2 C170.533333,19.458673 170.847997,20.8986586 170.847997,22.52 C170.847997,22.7760013 170.826664,23.0533318 170.783997,23.352 L157.855997,23.352 C157.919997,24.5893395 158.218661,25.6346624 158.751997,26.488 C159.285333,27.3413376 159.96266,27.9813312 160.783997,28.408 C161.605334,28.8346688 162.463993,29.048 163.359997,29.048 C165.493341,29.048 167.103992,28.0666765 168.191997,26.104 L170.495997,27.224 C169.813327,28.5253398 168.864003,29.5653294 167.647997,30.344 C166.431991,31.1226706 164.970672,31.512 163.263997,31.512 Z M167.967997,21.112 C167.92533,20.4293299 167.733332,19.7466701 167.391997,19.064 C167.050662,18.3813299 166.517334,17.8053357 165.791997,17.336 C165.06666,16.8666643 164.149336,16.632 163.039997,16.632 C161.759991,16.632 160.672001,17.0426626 159.775997,17.864 C158.879993,18.6853374 158.293332,19.7679933 158.015997,21.112 L167.967997,21.112 Z" id="Incode"></path>
            </g>
            <g id="Group-16" transform="translate(44.000000, 0.000000)">
                <rect id="Rectangle" fill="#FABB04" transform="translate(64.000000, 28.500000) rotate(60.000000) translate(-64.000000, -28.500000) " x="58" y="9.5" width="12" height="38" rx="6"></rect>
                <path d="M20.7290194,-3.48825882 L20.7290194,-3.48825882 C24.0427279,-3.48825882 26.7290194,-0.801967317 26.7290194,2.51174118 L26.7290194,28.5117412 C26.7290194,31.8254497 24.0427279,34.5117412 20.7290194,34.5117412 L20.7290194,34.5117412 C17.4153109,34.5117412 14.7290194,31.8254497 14.7290194,28.5117412 L14.7290194,2.51174118 C14.7290194,-0.801967317 17.4153109,-3.48825882 20.7290194,-3.48825882 Z" id="Rectangle-Copy-2" fill="#E94335" transform="translate(20.729019, 15.511741) rotate(60.000000) translate(-20.729019, -15.511741) "></path>
                <rect id="Rectangle-Copy-3" fill="#4284F3" transform="translate(20.000000, 29.000000) scale(1, -1) rotate(60.000000) translate(-20.000000, -29.000000) " x="14" y="10" width="12" height="38" rx="6"></rect>
                <path d="M64.0416331,-3.48825882 L64.0416331,-3.48825882 C67.3553416,-3.48825882 70.0416331,-0.801967317 70.0416331,2.51174118 L70.0416331,28.5117412 C70.0416331,31.8254497 67.3553416,34.5117412 64.0416331,34.5117412 L64.0416331,34.5117412 C60.7279246,34.5117412 58.0416331,31.8254497 58.0416331,28.5117412 L58.0416331,2.51174118 C58.0416331,-0.801967317 60.7279246,-3.48825882 64.0416331,-3.48825882 Z" id="Rectangle-Copy-5" fill="#0F9D58" transform="translate(64.041633, 15.511741) scale(1, -1) rotate(60.000000) translate(-64.041633, -15.511741) "></path>
            </g>
        </g>
    </g>
</svg>