<svg xmlns="http://www.w3.org/2000/svg" viewBox="0 0 965.86 245.22"><defs><style>.cls-1{fill:#3d3d3d;}.cls-2{fill:#f5a800;}</style></defs><g id="Capa_2" data-name="Capa 2"><g id="Capa_1-2" data-name="Capa 1"><path class="cls-1" d="M314.3,56.45q26.74,0,46,19.35T379.52,123q0,27.58-19,46.68t-46.07,19.1q-28.37,0-47.13-19.61t-18.77-46.59a65.4,65.4,0,0,1,32.78-57.26A64.61,64.61,0,0,1,314.3,56.45Zm-.25,23.46q-17.51,0-29.41,12.17T272.72,123q0,20.91,15,33.06a41.14,41.14,0,0,0,26.75,9.51,39.08,39.08,0,0,0,29.07-12.33q12-12.33,12-30.41T343.45,92.38A39.42,39.42,0,0,0,314.05,79.91ZM488,111.26,468.51,122a33.1,33.1,0,0,0-10.85-8,32.65,32.65,0,0,0-12.56-2.23q-13.12,0-21.23,7.83t-8.1,20.05q0,11.9,7.8,19.41t20.5,7.53q15.69,0,24.44-10.71l18.43,12.63Q472,188,444.63,188q-24.57,0-38.49-14.56t-13.92-34.09a48,48,0,0,1,25.65-42.82A56.35,56.35,0,0,1,445,90a55,55,0,0,1,24.92,5.52A47.36,47.36,0,0,1,488,111.26Zm15.77-54.81h23.38v74.39l39.23-44h29.36l-44.94,50.25,44.94,48.52h-29l-39.57-42.94V185.6H503.74Zm105.47,0h23.21v45.39A53.42,53.42,0,0,1,646.21,93a35.58,35.58,0,0,1,14-3,31.65,31.65,0,0,1,23.38,9.59q8.15,8.31,8.14,24.41V185.6h-23V144.75q0-16.19-1.54-21.93a15.32,15.32,0,0,0-5.27-8.56,14.75,14.75,0,0,0-9.21-2.83,17.33,17.33,0,0,0-12.2,4.71A25,25,0,0,0,633.45,129q-1,4.2-1,19.18V185.6H609.21Zm170.87,36h23.38V185.6H780.08v-9.85a45.89,45.89,0,0,1-13.73,9.38A38.52,38.52,0,0,1,751.42,188q-18.06,0-31.23-14T707,139.18q0-21.59,12.75-35.37t31-13.79a39.38,39.38,0,0,1,15.74,3.17,42.88,42.88,0,0,1,13.61,9.51ZM755.5,111.6a23.64,23.64,0,0,0-18,7.67q-7.17,7.67-7.17,19.65t7.3,19.87a23.65,23.65,0,0,0,18,7.8,24.11,24.11,0,0,0,18.27-7.67q7.24-7.66,7.25-20.08,0-12.17-7.25-19.7A24.42,24.42,0,0,0,755.5,111.6Zm67.58-19.18h23.39v10.7a40.07,40.07,0,0,1,13.32-9.85,39.14,39.14,0,0,1,16-3.25,29.75,29.75,0,0,1,15.77,4.28,31,31,0,0,1,11.31,12.51A37.88,37.88,0,0,1,916.53,94.3,37.34,37.34,0,0,1,934.23,90a32.73,32.73,0,0,1,17.49,4.63,26.72,26.72,0,0,1,10.84,12.07q3.3,7.45,3.3,24.24V185.6H942.31V138.32q0-15.84-3.94-21.45t-11.82-5.61a17.89,17.89,0,0,0-10.75,3.43,20.23,20.23,0,0,0-7.07,9.46q-2.31,6-2.31,19.4v42H882.87V140.47q0-12.51-1.85-18.12a16.4,16.4,0,0,0-5.54-8.35,14.52,14.52,0,0,0-8.93-2.74,17.61,17.61,0,0,0-10.6,3.47,20.61,20.61,0,0,0-7.12,9.72q-2.37,6.26-2.36,19.7V185.6H823.08Z"/><circle class="cls-2" cx="95.45" cy="122.61" r="45.76"/><path class="cls-2" d="M0,67.89V177.33a11.9,11.9,0,0,0,5.2,9.84l81.18,55.26a16.14,16.14,0,0,0,18.14,0l81.17-55.26a11.89,11.89,0,0,0,5.21-9.84V67.89a11.9,11.9,0,0,0-5.21-9.84L104.52,2.79a16.14,16.14,0,0,0-18.14,0L5.2,58.05A11.92,11.92,0,0,0,0,67.89Zm24.62,54.72a70.83,70.83,0,1,1,70.83,70.83A70.83,70.83,0,0,1,24.62,122.61Z"/></g></g></svg>